<svg width="105" height="28" viewBox="0 0 105 28" fill="none" xmlns="http://www.w3.org/2000/svg">
<path d="M72.3513 11.0689V4.50495C72.4301 3.95463 72.3907 3.39633 72.233 2.86595C72.0792 2.33557 71.8111 1.84108 71.4523 1.42235C71.0935 1.00363 70.6479 0.668651 70.1511 0.437356C69.6542 0.206061 69.1101 0.0864258 68.562 0.0864258V3.04939C68.4556 3.29664 68.4043 3.56382 68.4043 3.835V18.9888C68.4043 19.1603 68.428 19.3317 68.4713 19.4992C68.4753 19.4992 68.7671 13.5494 72.3513 11.0689Z" fill="black"/>
<path d="M76.6638 7.84823C76.3562 7.8243 75.3113 7.78442 75.3113 7.78442L75.4493 7.82829H74.8421C74.8421 7.82829 78.3948 8.2829 79.972 9.6627C81.5492 11.0425 82.0421 10.4443 83.8993 15.2736C83.8993 15.2736 82.9293 23.006 76.0644 23.1217C69.1996 23.2413 66.4395 17.5626 66.4395 17.5626C66.4395 22.9382 70.7492 27.2969 76.0644 27.2969C81.3797 27.2969 85.6894 22.9382 85.6894 17.5626C85.6894 12.3904 81.6991 8.15928 76.6638 7.84823Z" fill="black"/>
<path d="M78.5424 14.7551C79.1536 15.106 79.682 15.5846 80.096 16.1588C79.9974 15.4011 79.7332 14.6753 79.3153 14.0373C78.8973 13.3992 78.3453 12.8688 77.6907 12.482C77.0401 12.0952 76.3107 11.8639 75.5575 11.8041C74.8044 11.7443 74.0474 11.8639 73.3455 12.147C72.6436 12.4302 72.0167 12.8728 71.508 13.4391C70.9994 14.0054 70.6287 14.6793 70.4197 15.4131C70.2108 16.1469 70.1713 16.9205 70.3015 17.6702C70.4316 18.4239 70.7312 19.1337 71.1768 19.7519C71.0585 18.8267 71.1965 17.8895 71.579 17.0401C71.9575 16.1907 72.5648 15.4689 73.3297 14.9465C74.0947 14.4281 74.9858 14.133 75.9085 14.1011C76.8311 14.0692 77.742 14.2925 78.5424 14.7551Z" fill="black"/>
<path d="M27.8921 4.38176C27.8921 4.30201 27.8882 4.22624 27.8843 4.15047C27.8843 4.14249 27.8843 4.1385 27.8843 4.13053C27.8843 4.09464 27.8843 4.06672 27.8843 4.05476H27.8803C27.8764 3.99095 27.8685 3.92316 27.8606 3.85935C27.5609 1.43475 25.203 0.0709047 23.5863 0.0310263C23.4404 0.0270384 23.2945 0.0350141 23.1487 0.0549533L23.5232 7.4843C23.1763 9.27883 22.5454 11.5679 21.3979 13.825C18.2356 20.034 12.6996 23.1844 4.93965 23.1844C4.4586 23.1844 3.99332 23.3639 3.63056 23.6869C3.27174 24.0099 3.0391 24.4566 2.97996 24.9431L2.7276 24.644L0.0344982 22.8096C0.0344982 22.9771 -0.0009892 23.1366 0.014783 23.2921C0.29474 25.7327 2.6724 27.1164 4.29299 27.1563L4.88445 27.1683L4.88051 27.1643C4.90022 27.1643 4.91994 27.1643 4.93965 27.1643C16.6663 27.1643 22.3048 20.8236 24.9703 15.5039C27.0996 11.2528 27.6753 7.03766 27.8291 5.11951C27.8724 4.87625 27.8921 4.62901 27.8921 4.38176Z" fill="black"/>
<path d="M25.1251 2.1399C25.1251 2.10401 25.1251 2.07609 25.1251 2.06413H25.1212C25.0896 1.56166 24.8688 1.09109 24.51 0.744152C24.1512 0.39721 23.6701 0.201805 23.1733 0.197818C22.6765 0.19383 22.1954 0.37727 21.8248 0.716237C21.4541 1.0552 21.2254 1.52178 21.1821 2.02026C21.1821 2.06812 21.0835 7.01304 18.6348 11.8264C15.4765 18.0354 9.94043 21.1818 2.18051 21.1818C1.65608 21.1818 1.15532 21.3932 0.784669 21.7641C0.414023 22.1389 0.208984 22.6454 0.208984 23.1758C0.208984 23.7061 0.417966 24.2126 0.784669 24.5875C1.15532 24.9623 1.65608 25.1697 2.18051 25.1697C13.9071 25.1697 19.5457 18.829 22.2112 13.5092C24.8412 8.2732 25.1014 3.08502 25.1251 2.19174H25.1291C25.1291 2.17579 25.1251 2.15585 25.1251 2.1399Z" fill="white"/>
<path d="M2.18235 25.3709C1.60272 25.3709 1.05858 25.1436 0.648503 24.7288C0.242369 24.3181 0.0136719 23.7638 0.0136719 23.1776C0.0136719 22.5914 0.238426 22.041 0.648503 21.6263C1.05858 21.2116 1.60272 20.9843 2.18235 20.9843C9.85947 20.9843 15.3403 17.8737 18.4632 11.7325C20.8724 6.99889 20.9868 2.06593 20.9868 2.01807V2.00212C21.0341 1.44781 21.2864 0.937369 21.6926 0.5665C22.1026 0.19563 22.6271 -0.00774966 23.1751 0.000226022C23.7232 0.00820171 24.2477 0.219557 24.6459 0.60239C25.0008 0.941357 25.2295 1.38401 25.3004 1.86654H25.3241V2.15366C25.3241 2.16562 25.3241 2.18158 25.3241 2.19354V2.39293H25.3162C25.2571 3.73683 24.8785 8.64188 22.3905 13.6028C19.7013 18.9744 14.0115 25.3709 2.18235 25.3709ZM21.3811 2.03403C21.3732 2.30121 21.2154 7.20227 18.8141 11.9199C15.6163 18.2007 10.0211 21.383 2.18235 21.383C1.70918 21.383 1.26362 21.5705 0.928459 21.9094C0.5933 22.2484 0.407977 22.699 0.407977 23.1776C0.407977 23.6561 0.5933 24.1067 0.928459 24.4457C1.26362 24.7847 1.70918 24.9721 2.18235 24.9721C13.8104 24.9721 19.3977 18.6912 22.0356 13.4233C24.6301 8.25506 24.9022 3.1586 24.9298 2.18955V2.14967L24.9259 2.08188C24.8983 1.62727 24.7011 1.20455 24.3738 0.893503C24.0466 0.582451 23.6207 0.402998 23.1712 0.39901C22.7217 0.395022 22.2919 0.558524 21.9567 0.865588C21.6295 1.16866 21.4244 1.5834 21.3811 2.03403Z" fill="black"/>
<path d="M1.03063 7.22229C1.24356 7.00694 1.49197 6.83945 1.76798 6.72381C2.044 6.60816 2.33973 6.54834 2.6394 6.54834C2.93907 6.54834 3.2348 6.60816 3.51081 6.72381C3.78682 6.83945 4.03918 7.01093 4.24816 7.22229L8.79844 11.8442C9.01136 12.0595 9.17697 12.3108 9.29132 12.5899C9.40567 12.8691 9.46481 13.1682 9.46481 13.4712C9.46481 13.7743 9.40567 14.0734 9.29132 14.3525C9.17697 14.6317 9.00742 14.8869 8.79844 15.0983C8.58946 15.3096 8.3371 15.4811 8.06109 15.5968C7.78508 15.7124 7.48935 15.7722 7.18968 15.7722C6.89 15.7722 6.59427 15.7124 6.31826 15.5968C6.04225 15.4811 5.78989 15.3096 5.58091 15.0983L1.03063 10.4804C0.817708 10.265 0.6521 10.0138 0.537752 9.73463C0.423404 9.45548 0.364258 9.15639 0.364258 8.85331C0.364258 8.55024 0.423404 8.25115 0.537752 7.972C0.6521 7.69285 0.821652 7.43763 1.03063 7.22229Z" fill="black"/>
<path d="M0.666375 7.50134C1.09222 7.07065 1.67185 6.82739 2.27514 6.82739C2.87843 6.82739 3.45805 7.07065 3.8839 7.50134L8.43418 12.1232C8.64711 12.3386 8.81271 12.5898 8.92706 12.869C9.04141 13.1481 9.10056 13.4472 9.10056 13.7503C9.10056 14.0534 9.04141 14.3525 8.92706 14.6316C8.81271 14.9107 8.64316 15.166 8.43418 15.3773C8.2252 15.5887 7.97284 15.7602 7.69683 15.8758C7.42082 15.9915 7.12509 16.0513 6.82542 16.0513C6.52575 16.0513 6.23002 15.9915 5.954 15.8758C5.67799 15.7602 5.42564 15.5887 5.21665 15.3773L0.666375 10.7554C0.453451 10.5441 0.287843 10.2888 0.173494 10.0097C0.0591457 9.73054 0 9.43145 0 9.12838C0 8.8253 0.0591457 8.52621 0.173494 8.24706C0.287843 7.96792 0.453451 7.71269 0.666375 7.50134Z" fill="black"/>
<path d="M0.93493 7.47155C1.14785 7.25621 1.39627 7.08872 1.67228 6.97307C1.94829 6.85742 2.24402 6.79761 2.54369 6.79761C2.84337 6.79761 3.13909 6.85742 3.41511 6.97307C3.69112 7.08872 3.94348 7.2602 4.15246 7.47155L6.51829 9.86426C6.73121 10.0796 6.89682 10.3308 7.01117 10.61C7.12552 10.8891 7.18466 11.1882 7.18466 11.4913C7.18466 11.7944 7.12552 12.0935 7.01117 12.3726C6.89682 12.6518 6.72727 12.907 6.51829 13.1183C6.30931 13.3297 6.05695 13.5012 5.78094 13.6168C5.50492 13.7325 5.20919 13.7923 4.90952 13.7923C4.60985 13.7923 4.31412 13.7325 4.03811 13.6168C3.7621 13.5012 3.50974 13.3297 3.30076 13.1183L0.93493 10.7256C0.509081 10.2949 0.268555 9.70873 0.268555 9.09859C0.268555 8.48845 0.509081 7.90224 0.93493 7.47155Z" fill="white"/>
<path d="M4.91335 13.9976C4.58608 13.9976 4.26669 13.9338 3.96702 13.8062C3.66735 13.6786 3.39528 13.4991 3.16264 13.2639L0.79681 10.8712C0.327587 10.3966 0.0712891 9.77051 0.0712891 9.10056C0.0712891 8.4306 0.327587 7.80451 0.79681 7.32995C1.02945 7.09467 1.29758 6.91522 1.60119 6.78761C1.90086 6.66 2.22025 6.59619 2.54752 6.59619C2.8748 6.59619 3.19418 6.66 3.49386 6.78761C3.79353 6.91522 4.0656 7.09467 4.29824 7.32995L6.66407 9.72266C6.89671 9.95794 7.07414 10.2291 7.20032 10.5362C7.3265 10.8432 7.38959 11.1623 7.38959 11.4933C7.38959 11.8243 7.3265 12.1473 7.20032 12.4503C7.07414 12.7574 6.89671 13.0286 6.66407 13.2639C6.43143 13.4991 6.1633 13.6786 5.85969 13.8062C5.55607 13.9298 5.23668 13.9976 4.91335 13.9976ZM1.07677 7.61309C0.682462 8.01188 0.469537 8.53827 0.469537 9.10056C0.469537 9.66284 0.686405 10.1892 1.07677 10.588L3.4426 12.9807C3.63581 13.1761 3.8645 13.3317 4.11686 13.4353C4.36921 13.543 4.63734 13.5949 4.91335 13.5949C5.18937 13.5949 5.45749 13.539 5.70985 13.4353C5.9622 13.3277 6.1909 13.1761 6.38411 12.9807C6.57732 12.7853 6.7311 12.554 6.83362 12.2988C6.94008 12.0436 6.99134 11.7724 6.99134 11.4933C6.99134 11.2141 6.93614 10.9429 6.83362 10.6877C6.72716 10.4325 6.57732 10.2012 6.38411 10.0058L4.01828 7.61309C3.82507 7.41769 3.59637 7.26216 3.34402 7.15848C3.09166 7.05081 2.82354 6.99896 2.54752 6.99896C2.27151 6.99896 2.00338 7.05479 1.75103 7.15848C1.49473 7.26216 1.26998 7.41769 1.07677 7.61309Z" fill="black"/>
<path d="M6.9949 11.1023C7.48778 11.1023 7.96883 11.2498 8.37891 11.525C8.78899 11.8002 9.10837 12.195 9.2937 12.6536C9.48296 13.1122 9.53028 13.6186 9.43565 14.1091C9.34101 14.5996 9.10443 15.0463 8.7535 15.3972C8.40651 15.7481 7.96095 15.9874 7.47989 16.0871C6.99884 16.1828 6.49808 16.135 6.04068 15.9435C5.58723 15.7521 5.19687 15.4291 4.9248 15.0184C4.65273 14.6036 4.50684 14.1171 4.50684 13.6186L5.28756 14.4082L7.72042 11.9477L6.9949 11.1023Z" fill="black"/>
<path d="M17.1609 6.72293C17.1018 6.21248 16.8731 5.73793 16.5103 5.37504L11.964 0.749141C11.5381 0.318454 10.9585 0.0751953 10.3552 0.0751953C9.75193 0.0751953 9.1723 0.318454 8.74645 0.749141C8.3206 1.17983 8.08008 1.76604 8.08008 2.37618C8.08008 2.98632 8.3206 3.57253 8.74645 4.00322L12.2597 7.57234C12.378 8.22634 12.7447 8.80458 13.281 9.18741C13.8172 9.56626 14.4836 9.7178 15.1303 9.60614C15.7769 9.49448 16.3526 9.1276 16.7351 8.58525C17.1136 8.04689 17.2674 7.37693 17.1609 6.72293Z" fill="black"/>
<path d="M8.37829 1.02502C8.59121 0.809676 8.83963 0.642187 9.11564 0.526539C9.39165 0.410892 9.68738 0.351074 9.98705 0.351074C10.2867 0.351074 10.5825 0.410892 10.8585 0.526539C11.1345 0.642187 11.3868 0.813664 11.5958 1.02502L16.1422 5.64693C16.3551 5.86227 16.5207 6.11351 16.635 6.39265C16.7494 6.6718 16.8085 6.97089 16.8085 7.27397C16.8085 7.57704 16.7494 7.87613 16.635 8.15528C16.5207 8.43443 16.3511 8.68965 16.1422 8.90101C15.9292 9.11635 15.6808 9.28384 15.4048 9.39949C15.1288 9.51513 14.8331 9.57495 14.5334 9.57495C14.2337 9.57495 13.938 9.51513 13.662 9.39949C13.386 9.28384 13.1336 9.11236 12.9246 8.90101L8.37829 4.28309C8.16536 4.06774 7.99976 3.81651 7.88541 3.53736C7.77106 3.25821 7.71191 2.95912 7.71191 2.65605C7.71191 2.35297 7.77106 2.05388 7.88541 1.77473C7.99976 1.49558 8.16536 1.24036 8.37829 1.02502Z" fill="black"/>
<path d="M8.64684 1.00134C8.85977 0.785994 9.10818 0.618505 9.38419 0.502858C9.66021 0.38721 9.95594 0.327393 10.2556 0.327393C10.5553 0.327393 10.851 0.38721 11.127 0.502858C11.403 0.618505 11.6554 0.789982 11.8644 1.00134L14.2302 3.39404C14.4431 3.60939 14.6087 3.86062 14.7231 4.13977C14.8374 4.41892 14.8966 4.71801 14.8966 5.02108C14.8966 5.32416 14.8374 5.62325 14.7231 5.9024C14.6087 6.18154 14.4392 6.43677 14.2302 6.64812C13.8044 7.07881 13.2247 7.32207 12.6214 7.32207C12.0182 7.32207 11.4385 7.07881 11.0127 6.64812L8.64684 4.25542C8.221 3.82473 7.98047 3.23852 7.98047 2.62838C7.98047 2.01824 8.221 1.43202 8.64684 1.00134Z" fill="white"/>
<path d="M12.6223 7.52009C11.9599 7.52009 11.3408 7.26088 10.8716 6.78632L8.50579 4.39362C8.04051 3.91907 7.78027 3.29297 7.78027 2.62302C7.78027 1.95306 8.03657 1.32697 8.50579 0.852415C8.73843 0.617133 9.00656 0.43768 9.31018 0.310069C9.61379 0.182458 9.92924 0.118652 10.2565 0.118652C10.5838 0.118652 10.9032 0.182458 11.2028 0.310069C11.5025 0.43768 11.7746 0.617133 12.0072 0.852415L14.3731 3.24512C14.6057 3.4804 14.7831 3.75158 14.9093 4.05864C15.0355 4.36172 15.0986 4.68473 15.0986 5.01572C15.0986 5.34671 15.0355 5.66973 14.9093 5.9728C14.7831 6.27588 14.6057 6.55104 14.3731 6.78632C13.9078 7.26088 13.2848 7.52009 12.6223 7.52009ZM8.78575 1.13954C8.39145 1.53832 8.17852 2.06472 8.17852 2.62701C8.17852 3.18929 8.39539 3.71569 8.78575 4.11447L11.1516 6.50717C11.5459 6.90596 12.0664 7.1213 12.6223 7.1213C13.1783 7.1213 13.6988 6.90197 14.0931 6.50717C14.2863 6.31177 14.4401 6.08048 14.5426 5.82525C14.6491 5.57003 14.7003 5.29886 14.7003 5.01971C14.7003 4.74056 14.6451 4.46939 14.5426 4.21417C14.4361 3.95894 14.2863 3.72765 14.0931 3.53225L11.7273 1.13954C11.5341 0.944136 11.3054 0.78861 11.053 0.684926C10.8006 0.577254 10.5325 0.525412 10.2565 0.525412C9.98049 0.525412 9.71237 0.581242 9.46001 0.684926C9.20766 0.78861 8.9829 0.944136 8.78575 1.13954Z" fill="black"/>
<path d="M41.0391 12.195C40.9839 11.214 40.5581 10.2968 39.8523 9.62286C39.1465 8.94891 38.212 8.57406 37.242 8.57406V11.6128C37.1474 11.8481 37.1 12.0993 37.1 12.3505V19.4888C37.1 20.1468 36.9344 20.7928 36.619 21.3631C36.3035 21.9333 35.8501 22.4198 35.2981 22.7668C34.7381 23.042 34.1427 23.2374 33.5276 23.345C33.4448 23.349 33.3581 23.353 33.2753 23.353C32.2619 23.353 31.288 22.9423 30.5703 22.2205C29.8527 21.4947 29.4505 20.5137 29.4505 19.4848V12.3466C29.4505 12.2429 29.4426 12.1432 29.4269 12.0435C29.3362 11.0944 28.8985 10.2091 28.1966 9.56703C27.4987 8.92499 26.5879 8.57007 25.6415 8.57007V11.6208C25.5508 11.8521 25.5075 12.0993 25.5075 12.3466V19.4848C25.5075 20.0431 25.5666 20.5974 25.681 21.1397C25.2551 20.7769 24.8569 20.3821 24.4941 19.9554L23.3467 17.8737V18.2924C23.3467 23.2892 27.3528 27.3408 32.2935 27.3408H33.2753C37.5574 27.3408 41.0431 23.8156 41.0431 19.4848V12.3466C41.0431 12.2987 41.0431 12.2469 41.0391 12.195Z" fill="black"/>
<path d="M31.3039 25.748C27.0218 25.748 23.5361 22.2227 23.5361 17.8919V10.7537C23.5361 10.2233 23.7451 9.71685 24.1118 9.34199C24.4825 8.96713 24.9832 8.75977 25.5077 8.75977C26.0321 8.75977 26.5328 8.97112 26.9035 9.34199C27.2741 9.71685 27.4792 10.2233 27.4792 10.7537V17.8919C27.4792 18.9168 27.8814 19.9018 28.599 20.6276C29.3166 21.3534 30.2906 21.7601 31.3039 21.7601C32.3173 21.7601 33.2912 21.3534 34.0089 20.6276C34.7265 19.9018 35.1287 18.9168 35.1287 17.8919V10.7537C35.1287 10.2233 35.3377 9.71685 35.7044 9.34199C36.075 8.96713 36.5758 8.75977 37.1002 8.75977C37.6246 8.75977 38.1254 8.97112 38.4961 9.34199C38.8667 9.71685 39.0717 10.2233 39.0717 10.7537V17.8919C39.0717 22.2227 35.5861 25.748 31.3039 25.748Z" fill="white"/>
<path d="M31.3028 25.9492C26.9103 25.9492 23.3379 22.3363 23.3379 17.8938V10.7556C23.3379 10.1694 23.5626 9.61903 23.9727 9.2043C24.3828 8.78956 24.9269 8.56226 25.5066 8.56226C26.0862 8.56226 26.6303 8.78956 27.0404 9.2043C27.4505 9.61903 27.6752 10.1694 27.6752 10.7556V17.8938C27.6752 18.8748 28.0538 19.796 28.7359 20.4899C29.422 21.1838 30.3329 21.5626 31.3028 21.5626C32.2728 21.5626 33.1837 21.1798 33.8698 20.4899C34.5559 19.796 34.9305 18.8748 34.9305 17.8938V10.7556C34.9305 10.1694 35.1552 9.61903 35.5653 9.2043C35.9754 8.78956 36.5195 8.56226 37.0991 8.56226C37.6788 8.56226 38.2229 8.78956 38.633 9.2043C39.0431 9.61903 39.2678 10.1694 39.2678 10.7556V17.8938C39.2678 22.3363 35.6954 25.9492 31.3028 25.9492ZM25.5066 8.96104C25.0334 8.96104 24.5878 9.14847 24.2527 9.48744C23.9175 9.8264 23.7322 10.277 23.7322 10.7556V17.8938C23.7322 22.1169 27.1272 25.5505 31.3028 25.5505C35.4785 25.5505 38.8735 22.1169 38.8735 17.8938V10.7556C38.8735 10.277 38.6882 9.8264 38.353 9.48744C38.0179 9.14847 37.5723 8.96104 37.0991 8.96104C36.626 8.96104 36.1804 9.14847 35.8452 9.48744C35.5101 9.8264 35.3248 10.277 35.3248 10.7556V17.8938C35.3248 18.9785 34.9068 20.0034 34.1458 20.769C33.3848 21.5387 32.3754 21.9614 31.3028 21.9614C30.2303 21.9614 29.217 21.5387 28.4599 20.769C27.6989 19.9994 27.2809 18.9785 27.2809 17.8938V10.7556C27.2809 10.277 27.0956 9.8264 26.7605 9.48744C26.4253 9.14847 25.9797 8.96104 25.5066 8.96104Z" fill="black"/>
<path d="M68.4087 24.1146V18.1727C68.4087 17.6663 68.3614 17.1638 68.2667 16.6653C67.5609 12.0554 63.6179 8.52612 58.8626 8.52612V10.528C57.2498 10.9148 55.8027 11.8121 54.7263 13.0882C53.9968 12.2189 53.0939 11.521 52.0726 11.0425C51.0514 10.5639 49.9394 10.3167 48.8117 10.3167C44.5296 10.3167 41.0439 13.8419 41.0439 18.1727V21.2912C40.5077 21.4547 40.0266 21.7658 39.656 22.1925C39.2853 22.6152 39.033 23.1336 38.9344 23.6919C38.8358 24.2502 38.8871 24.8244 39.0882 25.3508C39.2893 25.8772 39.6284 26.3398 40.0739 26.6868C40.5155 27.0337 41.0479 27.249 41.6038 27.3089C42.1598 27.3687 42.7237 27.277 43.2284 27.0337C43.737 26.7944 44.1668 26.4156 44.4744 25.945C44.7819 25.4745 44.9594 24.9241 44.9791 24.3579H44.987V18.1767C44.987 17.742 45.0579 17.3074 45.2038 16.8966C45.4562 16.3104 45.9017 15.8279 46.4656 15.5328C47.0295 15.2377 47.6761 15.1499 48.2952 15.2775C48.9142 15.4091 49.4742 15.7481 49.8724 16.2466C50.2746 16.7451 50.4915 17.3632 50.4954 18.0052C50.4954 18.0052 51.2012 16.1628 50.1839 14.5637C50.9055 14.8429 51.5245 15.3413 51.9622 15.9834C52.3999 16.6294 52.6365 17.3911 52.6365 18.1727V21.0479C52.0805 21.2354 51.5876 21.5743 51.213 22.025C50.8384 22.4756 50.59 23.0259 50.5033 23.6121C50.4165 24.1983 50.4915 24.7925 50.7162 25.3389C50.9449 25.8852 51.3156 26.3558 51.7887 26.6987C52.2619 27.0457 52.8218 27.249 53.4054 27.2929C53.9889 27.3368 54.5725 27.2171 55.093 26.946C55.6135 26.6748 56.0472 26.268 56.3548 25.7616C56.6623 25.2551 56.82 24.6769 56.82 24.0867C56.82 24.0348 56.8201 23.983 56.8161 23.9312V18.1727C56.8161 17.6224 56.9305 17.084 57.1552 16.5816C57.4628 16.0552 57.9359 15.6484 58.4958 15.4171C59.0558 15.1898 59.6748 15.1499 60.2584 15.3134C60.842 15.4729 61.3546 15.8239 61.7252 16.3104C62.0919 16.7969 62.293 17.3911 62.293 18.0012C62.293 18.0012 63.0028 16.1469 61.9697 14.5438C62.7031 14.8189 63.334 15.3134 63.7795 15.9634C64.2251 16.6135 64.4656 17.3831 64.4656 18.1727V21.2912C63.9254 21.4587 63.4444 21.7737 63.0698 22.2044C62.6991 22.6351 62.4507 23.1575 62.3561 23.7198C62.2615 24.2821 62.3245 24.8603 62.5335 25.3907C62.7465 25.9211 63.0974 26.3797 63.5508 26.7187C64.0043 27.0576 64.5445 27.261 65.1044 27.3089C65.6683 27.3567 66.2321 27.2451 66.7329 26.9898C67.2376 26.7346 67.6595 26.3398 67.9552 25.8533C68.2509 25.3668 68.4087 24.8085 68.4087 24.2382C68.4126 24.1983 68.4126 24.1585 68.4087 24.1146Z" fill="black"/>
<path d="M58.6682 8.71997C57.5405 8.71997 56.4286 8.96722 55.4073 9.44576C54.3861 9.9243 53.4792 10.6222 52.7537 11.4915C52.0242 10.6222 51.1212 9.9243 50.0961 9.44576C49.0748 8.96722 47.9629 8.71997 46.8391 8.71997C42.5569 8.71997 39.0713 12.2452 39.0713 16.576V23.7143C39.0713 24.2446 39.2803 24.7511 39.647 25.126C40.0176 25.5008 40.5184 25.7082 41.0428 25.7082C41.5672 25.7082 42.068 25.4968 42.4387 25.126C42.8093 24.7511 43.0143 24.2446 43.0143 23.7143V16.576C43.0143 15.5511 43.4165 14.5661 44.1342 13.8404C44.8518 13.1146 45.8257 12.7078 46.8391 12.7078C47.8525 12.7078 48.8264 13.1146 49.544 13.8404C50.2617 14.5661 50.6639 15.5511 50.6639 16.576V23.7143C50.6639 24.2446 50.8728 24.7511 51.2395 25.126C51.6102 25.5008 52.111 25.7082 52.6354 25.7082C52.6748 25.7082 52.7142 25.7082 52.7537 25.7042C52.7931 25.7002 52.8325 25.7082 52.872 25.7082C53.3964 25.7082 53.8972 25.4968 54.2678 25.126C54.6384 24.7511 54.8435 24.2446 54.8435 23.7143V16.576C54.8435 15.5511 55.2457 14.5661 55.9633 13.8404C56.681 13.1146 57.6549 12.7078 58.6682 12.7078C59.6816 12.7078 60.6555 13.1146 61.3732 13.8404C62.0908 14.5661 62.493 15.5511 62.493 16.576V23.7143C62.493 24.2446 62.702 24.7511 63.0687 25.126C63.4393 25.5008 63.9401 25.7082 64.4645 25.7082C64.989 25.7082 65.4897 25.4968 65.8604 25.126C66.231 24.7511 66.4361 24.2446 66.4361 23.7143V16.576C66.4361 12.2452 62.9543 8.71997 58.6682 8.71997Z" fill="white"/>
<path d="M64.4644 25.9092C63.8848 25.9092 63.3406 25.6819 62.9306 25.2672C62.5205 24.8524 62.2957 24.3021 62.2957 23.7159V16.5777C62.2957 15.5966 61.9172 14.6755 61.2351 13.9816C60.549 13.2877 59.6381 12.9088 58.6681 12.9088C57.6981 12.9088 56.7873 13.2917 56.1012 13.9816C55.4151 14.6755 55.0405 15.5966 55.0405 16.5777V23.7159C55.0405 24.3021 54.8158 24.8524 54.4057 25.2672C53.9956 25.6819 53.4515 25.9092 52.8718 25.9092C52.8521 25.9092 52.8285 25.9092 52.8088 25.9052C52.7969 25.9052 52.7812 25.9012 52.7733 25.9052C52.722 25.9092 52.6786 25.9092 52.6353 25.9092C52.0556 25.9092 51.5115 25.6819 51.1014 25.2672C50.6913 24.8524 50.4666 24.3021 50.4666 23.7159V16.5777C50.4666 15.5966 50.0881 14.6755 49.4059 13.9816C48.7198 13.2877 47.809 12.9088 46.839 12.9088C45.869 12.9088 44.9581 13.2917 44.2721 13.9816C43.586 14.6755 43.2114 15.5966 43.2114 16.5777V23.7159C43.2114 24.3021 42.9866 24.8524 42.5765 25.2672C42.1665 25.6819 41.6223 25.9092 41.0427 25.9092C40.4631 25.9092 39.9189 25.6819 39.5089 25.2672C39.0988 24.8524 38.874 24.3021 38.874 23.7159V16.5777C38.874 12.1352 42.4464 8.52222 46.839 8.52222C46.839 8.52222 46.839 8.52222 46.8429 8.52222C47.9904 8.52222 49.1417 8.78143 50.1827 9.26794C51.1527 9.72256 52.0399 10.3845 52.7536 11.1901C53.4712 10.3845 54.3544 9.72256 55.3244 9.26794C56.3654 8.78143 57.5207 8.52222 58.6642 8.52222C63.0567 8.52222 66.6291 12.1352 66.6291 16.5777V23.7159C66.6291 24.3021 66.4044 24.8524 65.9943 25.2672C65.5882 25.6819 65.044 25.9092 64.4644 25.9092ZM58.6681 12.5101C59.7406 12.5101 60.754 12.9328 61.5111 13.7024C62.2721 14.4721 62.69 15.493 62.69 16.5777V23.7159C62.69 24.1944 62.8754 24.6451 63.2105 24.984C63.5457 25.323 63.9912 25.5104 64.4644 25.5104C64.9376 25.5104 65.3831 25.323 65.7183 24.984C66.0535 24.6451 66.2388 24.1944 66.2388 23.7159V16.5777C66.2388 12.3545 62.8438 8.921 58.6681 8.921C57.5798 8.921 56.4797 9.16426 55.494 9.62685C54.5043 10.0894 53.6092 10.7793 52.9073 11.6168L52.7575 11.7962L52.6077 11.6168C51.9019 10.7753 51.0068 10.0894 50.021 9.62286C49.0313 9.16027 47.9351 8.91701 46.8469 8.91701C46.8469 8.91701 46.8469 8.91701 46.8429 8.91701C42.6672 8.91701 39.2723 12.3505 39.2723 16.5737V23.7119C39.2723 24.1904 39.4576 24.6411 39.7928 24.98C40.1279 25.319 40.5735 25.5064 41.0466 25.5064C41.5198 25.5064 41.9654 25.319 42.3005 24.98C42.6357 24.6411 42.821 24.1904 42.821 23.7119V16.5737C42.821 15.489 43.239 14.4641 44 13.6984C44.761 12.9288 45.7704 12.5061 46.8429 12.5061C47.9154 12.5061 48.9288 12.9288 49.6859 13.6984C50.4469 14.4681 50.8648 15.489 50.8648 16.5737V23.7119C50.8648 24.1904 51.0502 24.6411 51.3853 24.98C51.7205 25.319 52.166 25.5064 52.6392 25.5064C52.6747 25.5064 52.7102 25.5064 52.7378 25.5024C52.7772 25.4985 52.8166 25.5024 52.8442 25.5024C52.8561 25.5024 52.864 25.5024 52.8758 25.5024C53.349 25.5024 53.7945 25.315 54.1297 24.9761C54.4648 24.6371 54.6502 24.1865 54.6502 23.7079V16.5697C54.6502 15.485 55.0681 14.4601 55.8291 13.6944C56.5862 12.9328 57.5956 12.5101 58.6681 12.5101Z" fill="black"/>
<path d="M81.4477 10.5878C80.0203 9.14425 78.1434 8.243 76.1364 8.03164C74.1294 7.82029 72.1106 8.31478 70.419 9.43137V2.67996C70.419 2.14957 70.21 1.64312 69.8433 1.26826C69.4727 0.893403 68.9719 0.686035 68.4475 0.686035C67.9231 0.686035 67.4223 0.897391 67.0516 1.26826C66.681 1.64312 66.476 2.14957 66.476 2.67996V16.0313C66.4484 16.3104 66.4365 16.5935 66.4365 16.8767C66.4365 18.3402 66.7914 19.7798 67.4735 21.0679C68.1557 22.356 69.1415 23.4566 70.3441 24.2701C71.5467 25.0837 72.9268 25.5821 74.366 25.7257C75.8052 25.8693 77.2562 25.6499 78.5929 25.0916C79.9296 24.5333 81.1086 23.648 82.0234 22.5155C82.9421 21.3869 83.5691 20.043 83.849 18.6074C84.1329 17.1718 84.058 15.6923 83.64 14.2926C83.2221 12.8968 82.469 11.6247 81.4477 10.5878ZM75.2295 21.7817C72.6665 21.7817 70.5609 19.7599 70.3914 17.2117C70.4111 17.1 70.419 16.9883 70.419 16.8767V16.2506C70.7226 13.8419 72.7651 11.9716 75.2295 11.9716C76.515 11.9716 77.7491 12.49 78.66 13.4073C79.5708 14.3284 80.0795 15.5766 80.0795 16.8767C80.0795 18.1767 79.5669 19.4249 78.66 20.3461C77.7491 21.2633 76.515 21.7817 75.2295 21.7817Z" fill="white"/>
<path d="M75.2294 25.9689C72.8439 25.9689 70.5569 25.0118 68.8732 23.305C67.1856 21.5982 66.2393 19.2853 66.2393 16.8766C66.2393 16.5935 66.2511 16.3063 66.2787 16.0192V2.67989C66.2787 2.09766 66.5074 1.53936 66.9135 1.12861C67.3197 0.717867 67.8717 0.486572 68.4474 0.486572C69.0231 0.486572 69.5751 0.717867 69.9812 1.12861C70.3873 1.53936 70.616 2.09766 70.616 2.67989V9.06841C71.8029 8.3506 73.1396 7.91991 74.5197 7.81224C75.8997 7.70457 77.2837 7.91592 78.5692 8.43833C79.8546 8.96074 81.002 9.77426 81.9247 10.8191C82.8474 11.8639 83.5177 13.1081 83.8883 14.456C84.255 15.8039 84.3103 17.2235 84.05 18.5954C83.7858 19.9712 83.2141 21.2632 82.3782 22.3798C81.5383 23.4924 80.4579 24.3977 79.2198 25.0198C77.9777 25.6419 76.6134 25.9689 75.2294 25.9689ZM68.4474 0.885357C67.9781 0.885357 67.5247 1.07677 67.1935 1.41175C66.8623 1.74673 66.673 2.20533 66.673 2.67989V16.0392V16.0471C66.6454 16.3223 66.6336 16.6014 66.6336 16.8766C66.6336 18.3082 66.9805 19.7159 67.6469 20.9761C68.3133 22.2363 69.2754 23.313 70.4544 24.1066C71.6294 24.9001 72.9819 25.3906 74.3895 25.5302C75.7972 25.6698 77.2167 25.4584 78.5219 24.9121C79.827 24.3658 80.9784 23.5004 81.8774 22.3958C82.7725 21.2911 83.3876 19.9791 83.6636 18.5754C83.9396 17.1717 83.8686 15.7241 83.4586 14.3563C83.0485 12.9885 82.3111 11.7443 81.3096 10.7313C79.9138 9.31964 78.0802 8.43833 76.1166 8.23096C74.153 8.02359 72.1814 8.50612 70.5293 9.59879L70.2217 9.80217V2.67989C70.2217 2.20533 70.0364 1.74673 69.7013 1.41175C69.3661 1.07677 68.9166 0.885357 68.4474 0.885357ZM75.2294 21.981C72.5836 21.981 70.3716 19.8914 70.1941 17.2235V17.1996L70.1981 17.1757C70.2139 17.076 70.2217 16.9763 70.2217 16.8766V16.2226C70.344 15.2496 70.7462 14.3324 71.3692 13.5826C71.9961 12.8329 72.8202 12.2826 73.7508 11.9955C74.6813 11.7084 75.671 11.6964 76.6016 11.9676C77.5361 12.2348 78.372 12.7691 79.0147 13.5069C79.6575 14.2446 80.0715 15.1539 80.2174 16.1229C80.3633 17.0919 80.2253 18.0849 79.827 18.9822C79.4288 19.8755 78.7821 20.6371 77.9659 21.1675C77.1497 21.6979 76.2033 21.981 75.2294 21.981ZM70.5884 17.2196C70.7619 19.6681 72.7965 21.5823 75.2294 21.5823C76.1245 21.5823 76.9998 21.323 77.749 20.8325C78.5021 20.342 79.0975 19.6442 79.4642 18.8187C79.8309 17.9932 79.9611 17.08 79.827 16.1867C79.6969 15.2934 79.3144 14.456 78.7229 13.7741C78.1354 13.0921 77.3626 12.6016 76.503 12.3504C75.6434 12.1032 74.7286 12.1111 73.873 12.3743C73.0174 12.6375 72.2524 13.144 71.6767 13.8339C71.0971 14.5238 70.7264 15.3692 70.6121 16.2625V16.8766C70.616 16.9923 70.6082 17.1039 70.5884 17.2196Z" fill="black"/>
<path d="M71.5589 19.7521C71.5589 19.7521 70.9241 19.0223 71.346 17.6704L70.7939 18.8747L71.5589 19.7521Z" fill="black"/>
<path d="M81.4083 10.6065C79.9809 9.16291 78.1001 8.26166 76.0931 8.05429C74.0821 7.84692 72.0633 8.34939 70.3796 9.47396V2.24001C70.3796 1.70963 70.1706 1.20318 69.8039 0.828319C69.4332 0.453462 68.9325 0.246094 68.408 0.246094C67.8836 0.246094 67.3829 0.457449 67.0122 0.828319C66.6416 1.20318 66.4365 1.70963 66.4365 2.24001V17.3938C66.4365 17.5653 66.4602 17.7368 66.5036 17.9043C66.6652 19.308 67.1581 20.6559 67.9388 21.8283C68.7195 23.0007 69.7684 23.9698 70.9947 24.6477C72.221 25.3296 73.5892 25.7005 74.989 25.7364C76.3888 25.7723 77.7728 25.4692 79.0346 24.8551C80.2924 24.2369 81.3886 23.3277 82.2284 22.1952C83.0683 21.0626 83.6282 19.7466 83.8609 18.3509C84.0935 16.9552 83.9949 15.5235 83.5691 14.1796C83.1353 12.8317 82.398 11.6075 81.4083 10.6065ZM75.2098 21.7525C74.2556 21.7525 73.325 21.4654 72.5285 20.931C71.736 20.3967 71.1169 19.635 70.7502 18.7417C70.3835 17.8484 70.2889 16.8674 70.4742 15.9223C70.6595 14.9772 71.1209 14.1078 71.7951 13.4259C72.4694 12.744 73.329 12.2774 74.2635 12.09C75.198 11.9026 76.168 11.9983 77.0512 12.3691C77.9305 12.74 78.6876 13.3621 79.2159 14.1676C79.7443 14.9692 80.0282 15.9143 80.0282 16.8794C80.0282 18.1714 79.5196 19.4117 78.6127 20.3289C77.7136 21.2381 76.4874 21.7525 75.2098 21.7525Z" fill="white"/>
<path d="M75.2097 25.9409C73.0134 25.9409 70.896 25.1274 69.2557 23.6519C67.6154 22.1764 66.5665 20.1466 66.3063 17.9413C66.259 17.7618 66.2393 17.5784 66.2393 17.395V2.24117C66.2393 1.65894 66.468 1.10064 66.8741 0.689894C67.2802 0.279146 67.8322 0.0478516 68.4079 0.0478516C68.9836 0.0478516 69.5356 0.279146 69.9418 0.689894C70.3479 1.10064 70.5766 1.65894 70.5766 2.24117V9.11222C72.2918 8.0674 74.3028 7.63273 76.294 7.87599C78.2813 8.12323 80.1306 9.03246 81.5501 10.4641C82.804 11.7322 83.6596 13.3473 84.0027 15.1059C84.3497 16.8646 84.1722 18.687 83.494 20.342C82.8158 21.9969 81.6684 23.4126 80.1937 24.4096C78.7151 25.4105 76.9841 25.9409 75.2097 25.9409ZM68.4079 0.446636C67.9387 0.446636 67.4853 0.638052 67.154 0.973031C66.8228 1.30801 66.6336 1.76661 66.6336 2.24117V17.395C66.6336 17.5505 66.6533 17.706 66.6927 17.8536L66.6967 17.8695V17.8855C66.9135 19.7598 67.7297 21.5064 69.0191 22.8703C70.3085 24.2301 72.004 25.1274 73.8454 25.4265C75.6868 25.7256 77.5716 25.4065 79.2198 24.5252C80.868 23.6399 82.181 22.2362 82.9696 20.5294C83.7543 18.8186 83.9712 16.8965 83.5768 15.0541C83.1865 13.2117 82.2086 11.5488 80.797 10.3165C79.3854 9.0843 77.615 8.35453 75.7538 8.2309C73.8927 8.11127 72.0434 8.60576 70.4899 9.6426L70.1823 9.84997V2.24117C70.1823 1.76661 69.997 1.30801 69.6618 0.973031C69.3267 0.638052 68.8772 0.446636 68.4079 0.446636ZM75.2097 21.9531C72.4417 21.9531 70.1902 19.676 70.1902 16.8765C70.1902 14.0771 72.4417 11.8 75.2097 11.8C76.5424 11.8 77.82 12.3344 78.7584 13.2875C79.6969 14.2406 80.2292 15.5326 80.2292 16.8765C80.2292 18.2205 79.7008 19.5165 78.7584 20.4656C77.82 21.4187 76.5424 21.9531 75.2097 21.9531ZM75.2097 12.1988C74.2949 12.1988 73.3998 12.474 72.6388 12.9884C71.8778 13.5028 71.2864 14.2326 70.9354 15.09C70.5845 15.9434 70.4938 16.8845 70.6712 17.7938C70.8487 18.703 71.2903 19.5364 71.937 20.1904C72.5836 20.8444 73.4077 21.2911 74.3067 21.4705C75.2058 21.65 76.1324 21.5583 76.9801 21.2034C77.8239 20.8484 78.5495 20.2503 79.0581 19.4806C79.5668 18.711 79.8388 17.8057 79.8388 16.8805C79.8388 15.6403 79.3499 14.4519 78.4824 13.5746C77.611 12.6933 76.436 12.1988 75.2097 12.1988Z" fill="black"/>
<path d="M89.91 4.13124C89.9139 4.0475 89.9179 3.95976 89.9179 3.87602C89.9179 2.85513 89.5157 1.87811 88.8059 1.15631C88.0922 0.43451 87.1262 0.0317383 86.1168 0.0317383V3.05851C86.0182 3.30177 85.9669 3.55699 85.9669 3.82019V21.2949C85.4267 21.4624 84.9418 21.7774 84.5632 22.2041C84.1886 22.6348 83.9402 23.1572 83.8416 23.7235C83.747 24.2858 83.8062 24.868 84.0151 25.3984C84.2241 25.9288 84.579 26.3914 85.0324 26.7343C85.4859 27.0733 86.0261 27.2807 86.5899 27.3325C87.1538 27.3804 87.7216 27.2727 88.2263 27.0135C88.731 26.7543 89.1569 26.3635 89.4526 25.873C89.7483 25.3864 89.9061 24.8242 89.9061 24.2539C89.9061 24.2459 89.9061 24.2419 89.9061 24.234V4.13124H89.91Z" fill="black"/>
<path d="M85.9666 25.749C85.4422 25.749 84.9415 25.5376 84.5708 25.1668C84.2002 24.7919 83.9951 24.2855 83.9951 23.7551V2.22073C83.9951 1.69034 84.2041 1.18389 84.5708 0.809032C84.9415 0.434174 85.4422 0.226807 85.9666 0.226807C86.4911 0.226807 86.9918 0.438162 87.3625 0.809032C87.7331 1.18389 87.9382 1.69034 87.9382 2.22073V23.7551C87.9382 24.2855 87.7292 24.7919 87.3625 25.1668C86.9918 25.5376 86.4911 25.749 85.9666 25.749Z" fill="white"/>
<path d="M85.9665 25.9488C85.3869 25.9488 84.8428 25.7215 84.4327 25.3068C84.0226 24.892 83.7979 24.3417 83.7979 23.7555V2.22115C83.7979 1.63493 84.0226 1.08461 84.4327 0.669875C84.8428 0.255139 85.3869 0.027832 85.9665 0.027832C86.5462 0.027832 87.0903 0.255139 87.5004 0.669875C87.9105 1.08461 88.1352 1.63493 88.1352 2.22115V23.7555C88.1352 24.3417 87.9105 24.892 87.5004 25.3068C87.0903 25.7215 86.5462 25.9488 85.9665 25.9488ZM85.9665 0.426616C85.4934 0.426616 85.0478 0.614045 84.7126 0.953011C84.3775 1.29198 84.1922 1.7426 84.1922 2.22115V23.7555C84.1922 24.234 84.3775 24.6847 84.7126 25.0236C85.0478 25.3626 85.4934 25.55 85.9665 25.55C86.4397 25.55 86.8853 25.3626 87.2204 25.0236C87.5556 24.6847 87.7409 24.234 87.7409 23.7555V2.22115C87.7409 1.7426 87.5556 1.29198 87.2204 0.953011C86.8853 0.614045 86.4397 0.426616 85.9665 0.426616Z" fill="black"/>
<path d="M102.71 22.4518C102.986 22.2804 103.246 22.081 103.486 21.8616L98.313 23.1298C98.731 23.2374 99.1568 23.3012 99.5906 23.3092L99.0859 23.4488L97.9858 23.2095L98.313 23.1298C97.0946 22.8068 96.0182 22.085 95.2532 21.076L98.7428 17.5468L101.46 14.7992C101.929 14.3964 102.307 13.8979 102.568 13.3356C102.828 12.7733 102.962 12.1592 102.962 11.5371C102.962 10.915 102.828 10.3009 102.568 9.73859C102.307 9.17631 101.933 8.67384 101.46 8.27506L100.908 8.93704C99.7996 8.6539 98.6482 8.5901 97.5205 8.74961C96.1719 8.93704 94.8865 9.44349 93.7667 10.2251C95.06 8.63795 96.5308 7.64897 97.3233 7.18638L97.1183 6.90723C91.9016 7.31 87.793 11.7166 87.793 17.0922C87.793 22.735 92.3156 27.309 97.8951 27.309H98.0607C98.1356 27.309 98.2144 27.313 98.2894 27.313C101.996 27.313 105 24.8565 105 21.8257L102.71 22.4518ZM95.3124 14.0814C95.9709 13.4114 96.8068 12.9528 97.7176 12.7534L96.7003 13.9737L93.956 16.7492C94.1176 15.7363 94.5908 14.8032 95.3124 14.0814Z" fill="black"/>
<path d="M104.297 20.4241C103.95 20.0294 103.461 19.7941 102.936 19.7622C102.412 19.7303 101.903 19.9137 101.513 20.2686C100.933 20.791 100.255 21.1898 99.5178 21.4371C98.7805 21.6843 97.9998 21.772 97.2269 21.6963C96.4541 21.6205 95.7049 21.3892 95.0228 21.0064C94.3446 20.6235 93.7492 20.1051 93.2799 19.483L96.7695 15.9538L101.391 11.284C101.608 11.0647 101.773 10.7975 101.868 10.5024C101.963 10.2073 101.99 9.89225 101.947 9.58519C101.903 9.27813 101.785 8.98303 101.612 8.73179C101.434 8.47657 101.202 8.2692 100.929 8.12165C99.2813 7.23236 97.3965 6.8934 95.5472 7.15261C93.6545 7.41979 91.9038 8.30509 90.5513 9.66894C89.2028 11.0328 88.3275 12.8074 88.0633 14.7215C87.807 16.5918 88.1421 18.498 89.0214 20.1649C89.0885 20.2925 89.1673 20.4082 89.262 20.5159C89.7115 21.3812 90.2872 22.1708 90.9693 22.8607C92.7003 24.6194 95.0306 25.6363 97.4793 25.708C99.9319 25.7798 102.313 24.8985 104.143 23.2436C104.533 22.8926 104.766 22.3981 104.798 21.8677C104.821 21.3374 104.644 20.8189 104.297 20.4241ZM93.3391 12.4844C94.0528 11.7586 94.9754 11.276 95.977 11.1125L91.9827 15.1522C92.1443 14.1393 92.6175 13.2062 93.3391 12.4844Z" fill="white"/>
<path d="M97.7556 25.9092C97.661 25.9092 97.5664 25.9092 97.4678 25.9052C94.9561 25.8334 92.5942 24.8006 90.8238 22.998C90.1337 22.2962 89.5502 21.4986 89.0928 20.6253C88.9981 20.5096 88.9153 20.386 88.8444 20.2544C87.9414 18.5396 87.6023 16.6175 87.8665 14.6914C88.1346 12.7493 89.0415 10.9149 90.4137 9.52711C91.7859 8.13934 93.5997 7.22613 95.5199 6.95097C97.4244 6.68378 99.325 7.02674 101.02 7.93995C101.316 8.10345 101.576 8.33475 101.77 8.6139C101.963 8.89305 102.093 9.22005 102.14 9.55503C102.188 9.89001 102.16 10.2409 102.054 10.564C101.947 10.887 101.766 11.1861 101.529 11.4253L93.5405 19.5007C93.9782 20.0431 94.5066 20.4937 95.1178 20.8326C95.7762 21.2035 96.4939 21.4268 97.2431 21.4986C97.9922 21.5704 98.7375 21.4867 99.4551 21.2474C100.173 21.0081 100.819 20.6293 101.379 20.1228C101.809 19.732 102.365 19.5326 102.945 19.5685C103.524 19.6004 104.053 19.8596 104.439 20.2943C104.826 20.729 105.019 21.2952 104.987 21.8775C104.956 22.4637 104.699 22.998 104.27 23.3889C102.472 25.0199 100.165 25.9092 97.7556 25.9092ZM96.7738 7.26202C96.3756 7.26202 95.9734 7.28993 95.5712 7.34576C93.7337 7.60497 91.9988 8.4823 90.6897 9.80626C89.3767 11.1342 88.5131 12.8849 88.2568 14.7432C88.0045 16.5856 88.3278 18.424 89.1953 20.063C89.2544 20.1747 89.3294 20.2823 89.4122 20.378L89.4279 20.394L89.4398 20.4139C89.8814 21.2593 90.4452 22.033 91.1116 22.7109C92.815 24.4377 95.0783 25.4306 97.4875 25.5024C99.9007 25.5742 102.215 24.7168 104.013 23.0898C104.368 22.7707 104.577 22.3321 104.601 21.8535C104.628 21.375 104.467 20.9164 104.151 20.5575C103.84 20.2066 103.394 19.9872 102.929 19.9633C102.456 19.9354 102.002 20.0989 101.647 20.4179C101.044 20.9642 100.35 21.371 99.5813 21.6262C98.8124 21.8814 98.0159 21.9732 97.2115 21.8974C96.4071 21.8216 95.6382 21.5824 94.9324 21.1836C94.2266 20.7888 93.6194 20.2584 93.1265 19.6084L93.0201 19.4688L101.253 11.1462C101.446 10.9508 101.596 10.7075 101.683 10.4403C101.77 10.1771 101.793 9.89001 101.754 9.61485C101.714 9.33969 101.608 9.0725 101.45 8.84519C101.293 8.61789 101.08 8.42647 100.839 8.29487C99.5694 7.60896 98.1854 7.26202 96.7738 7.26202ZM91.6912 15.7322L91.7898 15.1221C91.9594 14.0613 92.4483 13.1042 93.2014 12.3465C93.9506 11.5848 94.9009 11.0903 95.9497 10.9189L96.553 10.8192L91.6912 15.7322ZM95.3465 11.4732C94.6446 11.7005 94.0058 12.0913 93.4774 12.6297C92.9451 13.164 92.5587 13.8061 92.334 14.5159L95.3465 11.4732Z" fill="black"/>
<path d="M88.1514 17.0203H87.7881L87.7842 15.824H88.1553V17.0203H88.1514Z" fill="black"/>
</svg>
