<svg width="59" height="58" viewBox="0 0 59 58" fill="none" xmlns="http://www.w3.org/2000/svg">
<path d="M59.0007 9.22192C59.0007 9.05413 58.9957 8.89724 58.9865 8.73784V8.54068H58.9765C58.9683 8.40351 58.953 8.26685 58.9306 8.13127C58.2984 3.02367 53.3093 0.149379 49.8947 0.0629659C49.5854 0.0552488 49.276 0.0706723 48.969 0.109109L49.7613 15.7365C49.0282 19.5118 47.6929 24.3266 45.2625 29.076C38.5736 42.1395 26.8621 48.7639 10.4526 48.7639C9.43258 48.7642 8.44809 49.1406 7.68533 49.8217C6.92256 50.5029 6.43442 51.4416 6.31325 52.4604L5.77614 51.8345L0.0771995 47.9753C0.0771995 48.3235 -0.000365419 48.659 0.038 48.982C0.628494 54.1417 5.6552 57.0487 9.08557 57.1326L10.3366 57.1577L10.3316 57.1519H10.4551C35.2591 57.1519 47.1883 43.8124 52.8238 32.6231C57.3276 23.6823 58.542 14.8077 58.8681 10.7757C58.9564 10.2625 59.0008 9.74271 59.0007 9.22192Z" fill="white"/>
<path d="M53.1476 4.50109V4.34505H53.1376C53.0687 3.28846 52.6058 2.29697 51.8416 1.56888C51.0773 0.840782 50.0679 0.429751 49.0153 0.417984C47.9628 0.406218 46.9446 0.794583 46.1644 1.50541C45.3842 2.21624 44.8995 3.19713 44.8073 4.25192C44.8073 4.35511 44.6013 14.7591 39.4211 24.8787C32.7355 37.9438 21.0241 44.5683 4.61449 44.5683C3.5085 44.5683 2.4478 45.0102 1.66575 45.7969C0.883691 46.5836 0.444336 47.6506 0.444336 48.7631C0.444336 49.8756 0.883691 50.9426 1.66575 51.7293C2.4478 52.516 3.5085 52.9579 4.61449 52.9579C29.4186 52.9579 41.3477 39.6184 46.9833 28.4292C52.5438 17.4077 53.0909 6.48776 53.1451 4.61268H53.151C53.151 4.57492 53.1484 4.53801 53.1476 4.50109Z" fill="black"/>
<path d="M4.61354 53.3773C3.39695 53.3773 2.23018 52.8911 1.36992 52.0258C0.509657 51.1604 0.0263672 49.9868 0.0263672 48.763C0.0263672 47.5392 0.509657 46.3655 1.36992 45.5002C2.23018 44.6348 3.39695 44.1487 4.61354 44.1487C20.8555 44.1487 32.441 37.6006 39.0499 24.6847C44.1491 14.7229 44.3877 4.34997 44.3877 4.24845V4.21321C44.4872 3.08766 44.9931 2.03776 45.8098 1.26189C46.6265 0.486021 47.6974 0.0379345 48.8202 0.00230088C49.943 -0.0333327 51.0399 0.345955 51.9036 1.06849C52.7673 1.79103 53.338 2.80677 53.5078 3.92377H53.5603V4.52699C53.5603 4.55467 53.5603 4.58236 53.5603 4.61088V5.03036H53.5437C53.4252 7.8627 52.6262 18.1769 47.3543 28.6186C41.6662 39.9136 29.6328 53.3773 4.61354 53.3773ZM45.2234 4.27698C45.21 4.8416 44.8706 15.1499 39.7913 25.0723C33.0282 38.2885 21.1924 44.9893 4.61354 44.9893C3.61815 44.9893 2.66352 45.3871 1.95967 46.0951C1.25582 46.8031 0.860399 47.7634 0.860399 48.7647C0.860399 49.7659 1.25582 50.7262 1.95967 51.4342C2.66352 52.1422 3.61815 52.54 4.61354 52.54C29.2091 52.54 41.0274 39.3263 46.6104 28.2411C52.0966 17.3648 52.6688 6.64033 52.728 4.60081V4.51692L52.7188 4.37513C52.6538 3.42769 52.2369 2.53949 51.5509 1.88697C50.865 1.23445 49.9601 0.865355 49.016 0.852992C48.072 0.840629 47.1579 1.18591 46.4552 1.82024C45.7526 2.45457 45.3129 3.33155 45.2234 4.27698Z" fill="white"/>
<path d="M2.18044 15.1945C2.62757 14.7445 3.15845 14.3876 3.74275 14.144C4.32705 13.9005 4.95332 13.7751 5.58579 13.7751C6.21826 13.7751 6.84453 13.9005 7.42883 14.144C8.01313 14.3876 8.54401 14.7445 8.99114 15.1945L18.6092 24.9155C19.5123 25.824 20.0197 27.0562 20.0197 28.341C20.0197 29.6258 19.5123 30.858 18.6092 31.7665C17.706 32.675 16.4811 33.1854 15.2038 33.1854C13.9266 33.1854 12.7016 32.675 11.7985 31.7665L2.18044 22.0454C1.27765 21.1367 0.770508 19.9046 0.770508 18.6199C0.770508 17.3353 1.27765 16.1031 2.18044 15.1945Z" fill="white"/>
<path d="M1.40993 15.7756C2.31331 14.8672 3.53836 14.3569 4.8157 14.3569C6.09304 14.3569 7.31809 14.8672 8.22147 15.7756L17.8387 25.5026C18.2859 25.9524 18.6406 26.4864 18.8826 27.0742C19.1247 27.6619 19.2492 28.2919 19.2492 28.928C19.2492 29.5642 19.1247 30.1942 18.8826 30.7819C18.6406 31.3696 18.2859 31.9037 17.8387 32.3535C17.3915 32.8034 16.8606 33.1602 16.2763 33.4037C15.692 33.6471 15.0658 33.7724 14.4333 33.7724C13.8009 33.7724 13.1747 33.6471 12.5904 33.4037C12.0061 33.1602 11.4752 32.8034 11.028 32.3535L1.40993 22.6266C0.507138 21.7179 0 20.4858 0 19.2011C0 17.9164 0.507138 16.6843 1.40993 15.7756Z" fill="white"/>
<path d="M1.97961 15.7194C2.42674 15.2694 2.95762 14.9125 3.54192 14.6689C4.12622 14.4254 4.75249 14.3 5.38496 14.3C6.01743 14.3 6.64371 14.4254 7.22801 14.6689C7.81231 14.9125 8.34318 15.2694 8.79031 15.7194L13.7945 20.7531C14.2564 21.1996 14.6252 21.7343 14.8791 22.3259C15.1331 22.9175 15.2671 23.5541 15.2734 24.1984C15.2798 24.8428 15.1582 25.4819 14.9159 26.0784C14.6736 26.675 14.3154 27.2169 13.8624 27.6724C13.4093 28.1279 12.8704 28.488 12.2773 28.7314C11.6841 28.9748 11.0487 29.0968 10.4081 29.0901C9.76755 29.0834 9.13475 28.9483 8.54676 28.6925C7.95877 28.4368 7.42741 28.0656 6.9838 27.6008L1.97961 22.567C1.07661 21.6584 0.569336 20.4262 0.569336 19.1415C0.569336 17.8567 1.07661 16.6246 1.97961 15.716V15.7194Z" fill="black"/>
<path d="M10.3884 29.4454C9.70097 29.4451 9.02036 29.3085 8.3855 29.0433C7.75065 28.7782 7.17402 28.3896 6.68862 27.9L1.68443 22.8662C1.1984 22.3775 0.812853 21.7973 0.549805 21.1586C0.286758 20.52 0.151367 19.8355 0.151367 19.1442C0.151367 18.4529 0.286758 17.7684 0.549805 17.1297C0.812853 16.4911 1.1984 15.9108 1.68443 15.4221C2.17023 14.9331 2.74705 14.5452 3.38195 14.2805C4.01684 14.0159 4.69736 13.8796 5.38461 13.8796C6.07187 13.8796 6.75238 14.0159 7.38728 14.2805C8.02217 14.5452 8.599 14.9331 9.08479 15.4221L14.089 20.4559C14.8225 21.1917 15.3225 22.13 15.5253 23.1519C15.7282 24.1738 15.6249 25.2333 15.2286 26.1961C14.8323 27.1588 14.1607 27.9816 13.299 28.5601C12.4373 29.1385 11.4243 29.4466 10.3884 29.4454ZM2.27409 16.022C1.86558 16.4329 1.54153 16.9206 1.32045 17.4575C1.09936 17.9944 0.985566 18.5698 0.985566 19.1509C0.985566 19.732 1.09936 20.3074 1.32045 20.8443C1.54153 21.3811 1.86558 21.8689 2.27409 22.2798L7.27828 27.3136C8.10324 28.1434 9.22213 28.6096 10.3888 28.6096C11.5555 28.6096 12.6744 28.1434 13.4993 27.3136C14.3243 26.4837 14.7877 25.3582 14.7877 24.1847C14.7877 23.0111 14.3243 21.8856 13.4993 21.0558L8.49513 16.022C8.08678 15.6108 7.60189 15.2847 7.06817 15.0622C6.53444 14.8397 5.96236 14.7251 5.38461 14.7251C4.80686 14.7251 4.23478 14.8397 3.70106 15.0622C3.16734 15.2847 2.68244 15.6108 2.27409 16.022Z" fill="white"/>
<path d="M36.2958 14.1408C36.167 13.0662 35.6829 12.0663 34.9213 11.3017L25.3033 1.57733C24.4001 0.668835 23.1752 0.158447 21.8979 0.158447C20.6207 0.158447 19.3957 0.668835 18.4926 1.57733C17.5894 2.48583 17.082 3.71801 17.082 5.00282C17.082 6.28762 17.5894 7.51981 18.4926 8.4283L25.9221 15.9387C26.169 17.3134 26.9459 18.5343 28.0837 19.3353C29.2215 20.1364 30.6278 20.4526 31.9964 20.2152C33.365 19.9778 34.5848 19.206 35.3901 18.0679C36.1954 16.9297 36.521 15.5176 36.2958 14.1391V14.1408Z" fill="white"/>
<path d="M17.7234 2.15857C18.1705 1.7086 18.7014 1.35166 19.2857 1.10813C19.87 0.864603 20.4963 0.739258 21.1288 0.739258C21.7612 0.739258 22.3875 0.864603 22.9718 1.10813C23.5561 1.35166 24.087 1.7086 24.5341 2.15857L34.1522 11.883C35.0553 12.7915 35.5627 14.0237 35.5627 15.3085C35.5627 16.5933 35.0553 17.8255 34.1522 18.734C33.249 19.6425 32.0241 20.1528 30.7468 20.1528C29.4696 20.1528 28.2446 19.6425 27.3415 18.734L17.7234 9.00954C16.8206 8.10085 16.3135 6.86874 16.3135 5.58405C16.3135 4.29937 16.8206 3.06726 17.7234 2.15857Z" fill="white"/>
<path d="M18.2906 2.10095C18.7378 1.65099 19.2687 1.29405 19.853 1.05052C20.4373 0.806986 21.0635 0.681641 21.696 0.681641C22.3285 0.681641 22.9547 0.806986 23.539 1.05052C24.1233 1.29405 24.6542 1.65099 25.1014 2.10095L30.1055 7.13473C30.5615 7.58265 30.9246 8.11716 31.1738 8.70728C31.4229 9.2974 31.5532 9.93139 31.5569 10.5725C31.5607 11.2136 31.4379 11.8491 31.1957 12.4422C30.9536 13.0352 30.5968 13.574 30.1461 14.0273C29.6954 14.4806 29.1597 14.8395 28.5701 15.083C27.9805 15.3265 27.3487 15.45 26.7114 15.4461C26.074 15.4422 25.4438 15.3111 24.8572 15.0605C24.2706 14.8098 23.7392 14.4445 23.294 13.9857L18.2898 8.95192C17.387 8.04323 16.8799 6.81112 16.8799 5.52644C16.8799 4.24175 17.387 3.00964 18.2898 2.10095H18.2906Z" fill="black"/>
<path d="M26.7001 15.8253C26.0125 15.8272 25.3314 15.6919 24.6962 15.4272C24.061 15.1625 23.4843 14.7737 22.9995 14.2833L17.9953 9.24953C17.0141 8.26229 16.4629 6.92346 16.4629 5.52748C16.4629 4.13149 17.0141 2.79266 17.9953 1.80542C18.4811 1.31641 19.0579 0.928496 19.6928 0.66383C20.3277 0.399165 21.0082 0.262939 21.6954 0.262939C22.3827 0.262939 23.0632 0.399165 23.6981 0.66383C24.333 0.928496 24.9098 1.31641 25.3956 1.80542L30.3998 6.83919C31.1314 7.57549 31.6296 8.51345 31.8314 9.53449C32.0331 10.5555 31.9294 11.6138 31.5333 12.5756C31.1373 13.5374 30.4666 14.3594 29.6062 14.9379C28.7457 15.5163 27.7341 15.8251 26.6992 15.8253H26.7001ZM18.5858 2.40192C17.7609 3.23183 17.2976 4.35731 17.2976 5.53083C17.2976 6.70435 17.7609 7.82983 18.5858 8.65974L23.5899 13.6935C24.4181 14.508 25.5321 14.9612 26.6903 14.9547C27.8485 14.9482 28.9574 14.4825 29.7764 13.6588C30.5955 12.835 31.0585 11.7196 31.0652 10.5545C31.0718 9.38951 30.6214 8.26883 29.8118 7.4357L24.8076 2.40192C24.3993 1.99079 23.9144 1.66465 23.3807 1.44213C22.8469 1.21961 22.2749 1.10508 21.6971 1.10508C21.1194 1.10508 20.5473 1.21961 20.0136 1.44213C19.4798 1.66465 18.9949 1.99079 18.5866 2.40192H18.5858Z" fill="white"/>
</svg>
