<svg width="11" height="17" viewBox="0 0 11 17" fill="none" xmlns="http://www.w3.org/2000/svg">
<path d="M4.88889 17V15.618C1.85358 15.4442 0.00954861 13.8907 0 11.5357H2.75C2.8176 12.5352 3.66132 13.2983 4.88889 13.433V9.71429L3.86642 9.44866C1.53656 8.91058 0.289896 7.57449 0.289896 5.57509C0.289896 3.21824 1.98917 1.67268 4.88889 1.44196V0H6.11111V1.44196C9.06698 1.68103 10.6562 3.25353 10.6944 5.46429H7.94444C7.91542 4.55129 7.33983 3.81779 6.11111 3.71875V7.20982L7.28826 7.48607C9.76288 8.02415 11 9.29688 11 11.3839C11 13.8254 9.32938 15.4017 6.11111 15.6081V17H4.88889ZM4.88889 6.98214V3.71875C3.8351 3.77643 3.08344 4.41962 3.08344 5.33261C3.08344 6.17882 3.70944 6.73208 4.88889 6.98214ZM6.11111 9.94196V13.433C7.56823 13.3746 8.26451 12.7151 8.26451 11.6962C8.26451 10.7635 7.56823 10.1355 6.11111 9.94196Z" fill="white"/>
</svg>
