<svg width="15" height="13" viewBox="0 0 15 13" fill="none" xmlns="http://www.w3.org/2000/svg">
<path d="M9.64659 0.876963C9.64659 0.644378 9.73899 0.421319 9.90345 0.256856C10.0679 0.092394 10.291 0 10.5236 0H12.2775C12.5101 0 12.7331 0.092394 12.8976 0.256856C13.062 0.421319 13.1544 0.644378 13.1544 0.876963V11.4005H13.5929C13.7092 11.4005 13.8207 11.4467 13.903 11.5289C13.9852 11.6112 14.0314 11.7227 14.0314 11.839C14.0314 11.9553 13.9852 12.0668 13.903 12.1491C13.8207 12.2313 13.7092 12.2775 13.5929 12.2775H0.438481C0.322189 12.2775 0.210659 12.2313 0.128428 12.1491C0.046197 12.0668 0 11.9553 0 11.839C0 11.7227 0.046197 11.6112 0.128428 11.5289C0.210659 11.4467 0.322189 11.4005 0.438481 11.4005H0.876963V8.76963C0.876963 8.53704 0.969357 8.31399 1.13382 8.14952C1.29828 7.98506 1.52134 7.89267 1.75393 7.89267H3.50785C3.74044 7.89267 3.9635 7.98506 4.12796 8.14952C4.29242 8.31399 4.38481 8.53704 4.38481 8.76963V11.4005H5.26178V5.26178C5.26178 5.02919 5.35417 4.80613 5.51863 4.64167C5.6831 4.47721 5.90616 4.38481 6.13874 4.38481H7.89267C8.12525 4.38481 8.34831 4.47721 8.51277 4.64167C8.67724 4.80613 8.76963 5.02919 8.76963 5.26178V11.4005H9.64659V0.876963Z" fill="#555555"/>
</svg>
