<svg width="14" height="18" viewBox="0 0 14 18" fill="none" xmlns="http://www.w3.org/2000/svg">
<path d="M12.25 3.6H10.5C10.5 1.611 8.93375 0 7 0C5.06625 0 3.5 1.611 3.5 3.6H1.75C0.7875 3.6 0 4.41 0 5.4V16.2C0 17.19 0.7875 18 1.75 18H12.25C13.2125 18 14 17.19 14 16.2V5.4C14 4.41 13.2125 3.6 12.25 3.6ZM5.25 7.2C5.25 7.695 4.85625 8.1 4.375 8.1C3.89375 8.1 3.5 7.695 3.5 7.2V5.4H5.25V7.2ZM7 1.8C7.9625 1.8 8.75 2.61 8.75 3.6H5.25C5.25 2.61 6.0375 1.8 7 1.8ZM10.5 7.2C10.5 7.695 10.1062 8.1 9.625 8.1C9.14375 8.1 8.75 7.695 8.75 7.2V5.4H10.5V7.2Z" fill="white"/>
</svg>
