<svg width="19" height="21" viewBox="0 0 19 21" fill="none" xmlns="http://www.w3.org/2000/svg">
<path d="M16.2771 2.27476H15.6444V1.58449C15.6444 0.710429 14.9547 0 14.106 0C13.2567 0 12.5676 0.710429 12.5676 1.58449V2.27418H10.9889V1.58449C10.9889 0.710429 10.2992 0 9.45049 0C8.60178 0 7.91209 0.710429 7.91209 1.58449V2.27418H6.33336V1.58449C6.33336 0.710429 5.64367 0 4.79496 0C3.94625 0 3.25656 0.710429 3.25656 1.58449V2.27418H2.44876C1.09877 2.27418 0 3.37295 0 4.72294V18.5512C0 19.9012 1.09877 21 2.44876 21H16.2771C17.6276 21 18.7258 19.9012 18.7258 18.5512V4.72294C18.7258 3.37353 17.627 2.27476 16.2771 2.27476ZM13.4319 1.58449C13.4319 1.18751 13.7344 0.864269 14.106 0.864269C14.4782 0.864269 14.7801 1.18751 14.7801 1.58449V4.40547C14.7801 4.80245 14.4782 5.12569 14.106 5.12569C13.7344 5.12569 13.4319 4.80245 13.4319 4.40547V1.58449ZM8.77636 1.58449C8.77636 1.18751 9.07886 0.864269 9.45049 0.864269C9.82213 0.864269 10.1246 1.18751 10.1246 1.58449V4.40547C10.1246 4.80245 9.82213 5.12569 9.45049 5.12569C9.07886 5.12569 8.77636 4.80245 8.77636 4.40547V1.58449V1.58449ZM4.12026 1.58449C4.12026 1.18751 4.42275 0.864269 4.79439 0.864269C5.16602 0.864269 5.46852 1.18751 5.46852 1.58449V4.40547C5.46852 4.80245 5.16602 5.12569 4.79439 5.12569C4.42275 5.12569 4.12026 4.80245 4.12026 4.40547V1.58449ZM17.2854 18.5518C17.2854 19.1078 16.8331 19.5601 16.2771 19.5601H2.44876C1.89275 19.5601 1.44045 19.1078 1.44045 18.5518V5.87587H17.2854V18.5518Z" fill="black"/>
<path d="M5.38387 8.42712H2.73633V10.7831H5.38387V8.42712Z" fill="black"/>
<path d="M8.91863 8.42712H6.27051V10.7831H8.91863V8.42712Z" fill="black"/>
<path d="M12.4542 8.42712H9.80664V10.7831H12.4542V8.42712Z" fill="black"/>
<path d="M15.9889 8.42712H13.3408V10.7831H15.9889V8.42712Z" fill="black"/>
<path d="M5.38387 11.572H2.73633V13.9263H5.38387V11.572Z" fill="black"/>
<path d="M8.91863 11.572H6.27051V13.9263H8.91863V11.572Z" fill="black"/>
<path d="M12.4542 11.572H9.80664V13.9263H12.4542V11.572Z" fill="black"/>
<path d="M15.9889 11.572H13.3408V13.9263H15.9889V11.572Z" fill="black"/>
<path d="M5.38387 14.7156H2.73633V17.0698H5.38387V14.7156Z" fill="black"/>
<path d="M8.91863 14.7156H6.27051V17.0698H8.91863V14.7156Z" fill="black"/>
<path d="M12.4542 14.7156H9.80664V17.0698H12.4542V14.7156Z" fill="black"/>
<path d="M15.9889 14.7156H13.3408V17.0698H15.9889V14.7156Z" fill="black"/>
</svg>
