<svg width="17" height="15" viewBox="0 0 17 15" fill="none" xmlns="http://www.w3.org/2000/svg">
<path d="M16.5365 7.03222C16.5365 10.916 12.938 14.0644 8.49971 14.0644C7.70371 14.0655 6.91102 13.9622 6.14191 13.757C5.55522 14.0544 4.20805 14.625 1.94167 14.9967C1.74074 15.0288 1.58805 14.8199 1.66741 14.633C2.02304 13.7932 2.34451 12.6741 2.44095 11.6534C1.21031 10.4177 0.462891 8.80031 0.462891 7.03222C0.462891 3.14842 4.06138 0 8.49971 0C12.938 0 16.5365 3.14842 16.5365 7.03222ZM5.4859 7.03222C5.4859 6.76578 5.38006 6.51025 5.19166 6.32185C5.00326 6.13346 4.74774 6.02761 4.4813 6.02761C4.21486 6.02761 3.95934 6.13346 3.77094 6.32185C3.58254 6.51025 3.4767 6.76578 3.4767 7.03222C3.4767 7.29865 3.58254 7.55418 3.77094 7.74258C3.95934 7.93098 4.21486 8.03682 4.4813 8.03682C4.74774 8.03682 5.00326 7.93098 5.19166 7.74258C5.38006 7.55418 5.4859 7.29865 5.4859 7.03222ZM9.50431 7.03222C9.50431 6.76578 9.39847 6.51025 9.21007 6.32185C9.02167 6.13346 8.76615 6.02761 8.49971 6.02761C8.23327 6.02761 7.97775 6.13346 7.78935 6.32185C7.60095 6.51025 7.49511 6.76578 7.49511 7.03222C7.49511 7.29865 7.60095 7.55418 7.78935 7.74258C7.97775 7.93098 8.23327 8.03682 8.49971 8.03682C8.76615 8.03682 9.02167 7.93098 9.21007 7.74258C9.39847 7.55418 9.50431 7.29865 9.50431 7.03222ZM12.5181 8.03682C12.7846 8.03682 13.0401 7.93098 13.2285 7.74258C13.4169 7.55418 13.5227 7.29865 13.5227 7.03222C13.5227 6.76578 13.4169 6.51025 13.2285 6.32185C13.0401 6.13346 12.7846 6.02761 12.5181 6.02761C12.2517 6.02761 11.9962 6.13346 11.8078 6.32185C11.6194 6.51025 11.5135 6.76578 11.5135 7.03222C11.5135 7.29865 11.6194 7.55418 11.8078 7.74258C11.9962 7.93098 12.2517 8.03682 12.5181 8.03682Z" fill="white"/>
</svg>
