<svg width="15" height="15" viewBox="0 0 15 15" fill="none" xmlns="http://www.w3.org/2000/svg">
<path d="M1.49395 11.9515H2.9879V14.9999L6.79822 11.9515H10.4576C11.2816 11.9515 11.9516 11.2815 11.9516 10.4575V4.48174C11.9516 3.65783 11.2816 2.98779 10.4576 2.98779H1.49395C0.670036 2.98779 0 3.65783 0 4.48174V10.4575C0 11.2815 0.670036 11.9515 1.49395 11.9515Z" fill="white"/>
<path d="M13.4459 0H4.48223C3.65832 0 2.98828 0.670036 2.98828 1.49395H11.952C12.7759 1.49395 13.4459 2.16399 13.4459 2.9879V8.9637C14.2698 8.9637 14.9399 8.29366 14.9399 7.46975V1.49395C14.9399 0.670036 14.2698 0 13.4459 0Z" fill="white"/>
</svg>
