<svg width="18" height="22" viewBox="0 0 18 22" fill="none" xmlns="http://www.w3.org/2000/svg">
<path d="M9.42707 5.5V0H5.4985C4.87335 0 4.2738 0.248341 3.83175 0.690391C3.3897 1.13244 3.14136 1.73199 3.14136 2.35714V16.5C3.14136 17.1252 3.3897 17.7247 3.83175 18.1668C4.2738 18.6088 4.87335 18.8571 5.4985 18.8571H14.9286C15.5538 18.8571 16.1533 18.6088 16.5954 18.1668C17.0374 17.7247 17.2858 17.1252 17.2858 16.5V7.85714H11.7826C11.1575 7.85714 10.5579 7.6088 10.1159 7.16675C9.67384 6.7247 9.4255 6.12515 9.4255 5.5H9.42707Z" fill="black"/>
<path d="M10.9984 5.49997V0.392822L16.8913 6.28568H11.7841C11.5757 6.28568 11.3759 6.2029 11.2285 6.05555C11.0812 5.9082 10.9984 5.70835 10.9984 5.49997Z" fill="black"/>
<path d="M0 4.71425C0 4.29748 0.165561 3.89778 0.460261 3.60308C0.754961 3.30838 1.15466 3.14282 1.57143 3.14282V16.5C1.57143 17.5419 1.98533 18.5411 2.72208 19.2779C3.45883 20.0146 4.45808 20.4285 5.5 20.4285H14.1429C14.1429 20.8453 13.9773 21.245 13.6826 21.5397C13.3879 21.8344 12.9882 22 12.5714 22H5.588C4.10597 22 2.68464 21.4112 1.63669 20.3633C0.588734 19.3153 0 17.894 0 16.412V4.71425Z" fill="black"/>
</svg>
