<svg width="8" height="5" viewBox="0 0 8 5" fill="none" xmlns="http://www.w3.org/2000/svg">
<path d="M3.96272e-05 0.829615C-0.000250768 0.936345 0.0185886 1.0418 0.055173 1.13823C0.0917573 1.23466 0.145157 1.31962 0.211449 1.38686L3.6397 4.83748C3.74193 4.94256 3.87017 5 4.00252 5C4.13486 5 4.2631 4.94256 4.36534 4.83748L7.79359 1.26541C7.91027 1.14414 7.98365 0.96989 7.99758 0.780981C8.01151 0.592071 7.96485 0.403979 7.86787 0.258083C7.77088 0.112188 7.63152 0.0204401 7.48043 0.00302266C7.32935 -0.0143943 7.17891 0.0439458 7.06223 0.165209L3.99966 3.35864L0.937093 0.272372C0.853224 0.185011 0.751097 0.129517 0.642793 0.112458C0.53449 0.0953979 0.424544 0.117485 0.325966 0.176107C0.227388 0.234729 0.144303 0.327431 0.0865431 0.443245C0.0287829 0.559059 -0.00123591 0.693138 3.96272e-05 0.829615Z" fill="black"/>
</svg>
