<svg width="19" height="19" viewBox="0 0 19 19" fill="none" xmlns="http://www.w3.org/2000/svg">
<path d="M13.4739 3.40783L15.5919 5.52484L13.4739 3.40783ZM14.8359 1.54283L9.10888 7.26985C8.81297 7.56535 8.61116 7.94183 8.52888 8.35185L7.99988 10.9999L10.6479 10.4699C11.0579 10.3879 11.4339 10.1869 11.7299 9.89085L17.4569 4.16384C17.629 3.99174 17.7655 3.78743 17.8587 3.56257C17.9518 3.33772 17.9997 3.09672 17.9997 2.85333C17.9997 2.60995 17.9518 2.36895 17.8587 2.14409C17.7655 1.91924 17.629 1.71493 17.4569 1.54283C17.2848 1.37073 17.0805 1.23422 16.8556 1.14108C16.6308 1.04794 16.3898 1 16.1464 1C15.903 1 15.662 1.04794 15.4372 1.14108C15.2123 1.23422 15.008 1.37073 14.8359 1.54283V1.54283Z" stroke="#48C9FF" stroke-width="1.5" stroke-linecap="round" stroke-linejoin="round"/>
<path d="M16 13V16C16 16.5305 15.7893 17.0392 15.4143 17.4143C15.0392 17.7893 14.5305 18 14 18H3.00001C2.46957 18 1.96086 17.7893 1.58579 17.4143C1.21071 17.0392 1 16.5305 1 16V5.00001C1 4.46957 1.21071 3.96086 1.58579 3.58579C1.96086 3.21071 2.46957 3 3.00001 3H6.00002" stroke="#48C9FF" stroke-width="1.5" stroke-linecap="round" stroke-linejoin="round"/>
</svg>
