<svg width="12" height="12" viewBox="0 0 12 12" fill="none" xmlns="http://www.w3.org/2000/svg">
<path d="M3.41414 3.41414C4.19508 2.6332 4.19508 1.36664 3.41414 0.585703C2.6332 -0.195234 1.36664 -0.195234 0.585703 0.585703C-0.195234 1.36664 -0.195234 2.6332 0.585703 3.41414C1.36695 4.19539 2.6332 4.19539 3.41414 3.41414ZM11.4141 8.5857C10.6332 7.80477 9.36664 7.80477 8.5857 8.5857C7.80477 9.36664 7.80477 10.6332 8.5857 11.4141C9.36664 12.1951 10.6332 12.1951 11.4141 11.4141C12.1954 10.6332 12.1954 9.36695 11.4141 8.5857ZM11.3535 1.35352L10.6466 0.646641C10.256 0.256016 9.62289 0.256016 9.23258 0.646641L0.646641 9.23258C0.256016 9.6232 0.256016 10.2563 0.646641 10.6466L1.35352 11.3535C1.74414 11.7441 2.37727 11.7441 2.76758 11.3535L11.3535 2.76758C11.7441 2.37727 11.7441 1.74414 11.3535 1.35352Z" fill="white"/>
</svg>
