<svg width="17" height="13" viewBox="0 0 17 13" fill="none" xmlns="http://www.w3.org/2000/svg">
<path d="M11.1562 6.28125C11.1562 6.98573 10.8764 7.66136 10.3783 8.1595C9.88011 8.65765 9.20448 8.9375 8.5 8.9375C7.79552 8.9375 7.11989 8.65765 6.62175 8.1595C6.1236 7.66136 5.84375 6.98573 5.84375 6.28125C5.84375 5.57677 6.1236 4.90114 6.62175 4.403C7.11989 3.90485 7.79552 3.625 8.5 3.625C9.20448 3.625 9.88011 3.90485 10.3783 4.403C10.8764 4.90114 11.1562 5.57677 11.1562 6.28125Z" fill="black"/>
<path d="M0 6.28125C0 6.28125 3.1875 0.4375 8.5 0.4375C13.8125 0.4375 17 6.28125 17 6.28125C17 6.28125 13.8125 12.125 8.5 12.125C3.1875 12.125 0 6.28125 0 6.28125ZM8.5 10C9.48627 10 10.4322 9.6082 11.1296 8.9108C11.827 8.2134 12.2188 7.26752 12.2188 6.28125C12.2188 5.29498 11.827 4.3491 11.1296 3.6517C10.4322 2.9543 9.48627 2.5625 8.5 2.5625C7.51373 2.5625 6.56785 2.9543 5.87045 3.6517C5.17305 4.3491 4.78125 5.29498 4.78125 6.28125C4.78125 7.26752 5.17305 8.2134 5.87045 8.9108C6.56785 9.6082 7.51373 10 8.5 10V10Z" fill="black"/>
</svg>
