<svg width="73" height="67" viewBox="0 0 73 67" fill="none" xmlns="http://www.w3.org/2000/svg">
<path d="M19.009 53.2306C14.1395 53.2306 9.80802 50.1128 8.23517 45.4711L8.12879 45.1213C7.75785 43.8921 7.60246 42.8584 7.60246 41.8241V21.0852L0.223314 45.7173C-0.725744 49.3403 1.43693 53.0964 5.06551 54.0973L52.1001 66.6934C52.6872 66.8455 53.2742 66.9185 53.8523 66.9185C56.8816 66.9185 59.6497 64.9078 60.4256 61.9448L63.1658 53.2306H19.009Z" fill="black"/>
<path d="M27.3737 21.2926C30.7288 21.2926 33.4568 18.564 33.4568 15.2089C33.4568 11.8538 30.7288 9.12524 27.3737 9.12524C24.0186 9.12524 21.29 11.8538 21.29 15.2089C21.29 18.564 24.0186 21.2926 27.3737 21.2926Z" fill="black"/>
<path d="M65.3953 0H19.7692C15.5781 0 12.165 3.41304 12.165 7.60472V41.0635C12.165 45.2551 15.5781 48.6682 19.7692 48.6682H65.3953C69.5869 48.6682 73 45.2551 73 41.0635V7.60472C73 3.41304 69.5869 0 65.3953 0ZM19.7692 6.08366H65.3953C66.2352 6.08366 66.9163 6.76482 66.9163 7.60472V29.198L57.3077 17.9859C56.2884 16.7906 54.813 16.1518 53.2285 16.1156C51.6529 16.1245 50.1747 16.8241 49.1649 18.0349L37.8676 31.5946L34.1872 27.9231C32.107 25.8429 28.7212 25.8429 26.6437 27.9231L18.2487 36.3154V7.60472C18.2487 6.76482 18.9299 6.08366 19.7692 6.08366Z" fill="black"/>
</svg>
