<svg width="16" height="15" viewBox="0 0 16 15" fill="none" xmlns="http://www.w3.org/2000/svg">
<path d="M15.6689 7.37711L8.3992 0.164272C8.34686 0.112198 8.28468 0.070885 8.21624 0.0426971C8.1478 0.0145092 8.07443 0 8.00033 0C7.92623 0 7.85286 0.0145092 7.78442 0.0426971C7.71598 0.070885 7.6538 0.112198 7.60146 0.164272L0.331803 7.37711C0.120014 7.58739 0 7.87303 0 8.17094C0 8.78953 0.506529 9.29247 1.12954 9.29247H1.89551V14.4392C1.89551 14.7494 2.14789 15 2.46028 15H6.87079V11.0746H8.84749V15H13.5404C13.8528 15 14.1052 14.7494 14.1052 14.4392V9.29247H14.8711C15.1712 9.29247 15.4588 9.17506 15.6706 8.96302C16.1101 8.52492 16.1101 7.8152 15.6689 7.37711Z" fill="black"/>
</svg>
