<svg width="5" height="10" viewBox="0 0 5 10" fill="none" xmlns="http://www.w3.org/2000/svg">
<path d="M4.17038 9.99995C4.06366 10.0003 3.9582 9.97676 3.86177 9.93103C3.76534 9.8853 3.68038 9.81855 3.61314 9.73569L0.162521 5.45038C0.0574434 5.32258 0 5.16228 0 4.99685C0 4.83142 0.0574434 4.67112 0.162521 4.54332L3.73459 0.258013C3.85586 0.112158 4.03011 0.0204347 4.21902 0.00302221C4.40793 -0.0143902 4.59602 0.0439342 4.74192 0.165165C4.88781 0.286395 4.97956 0.460601 4.99698 0.649459C5.01439 0.838317 4.95605 1.02636 4.83479 1.17221L1.64136 5.00042L4.72763 8.82863C4.81499 8.93347 4.87048 9.06113 4.88754 9.19651C4.9046 9.33189 4.88251 9.46932 4.82389 9.59254C4.76527 9.71576 4.67257 9.81962 4.55675 9.89182C4.44094 9.96402 4.30686 10.0015 4.17038 9.99995Z" fill="black"/>
</svg>
