<svg width="19" height="17" viewBox="0 0 19 17" fill="none" xmlns="http://www.w3.org/2000/svg">
<path d="M17.6465 2.31888C16.8836 0.753338 14.6862 -0.527561 12.1301 0.218207C10.9086 0.571017 9.84297 1.32763 9.10715 2.36443C8.37134 1.32763 7.30566 0.571017 6.08423 0.218207C3.52243 -0.516175 1.33067 0.753338 0.567823 2.31888C-0.502439 4.51064 -0.0583943 6.97566 1.88857 9.64563C3.41427 11.7349 5.59464 13.8527 8.75989 16.312C8.85992 16.39 8.98314 16.4324 9.11 16.4324C9.23686 16.4324 9.36008 16.39 9.46011 16.312C12.6197 13.8584 14.8057 11.7577 16.3314 9.64563C18.2727 6.97566 18.7167 4.51064 17.6465 2.31888Z" fill="#FF1E1E"/>
</svg>
