<svg width="359" height="720" viewBox="0 0 359 720" fill="none" xmlns="http://www.w3.org/2000/svg">
<path d="M309.035 0H49.8236C22.3068 0 0 21.6471 0 48.3503V671.65C0 698.353 22.3068 720 49.8236 720H309.035C336.552 720 358.858 698.353 358.858 671.65V48.3503C358.858 21.6471 336.552 0 309.035 0Z" fill="#EBFACD"/>
<path d="M308.266 15.9314H278.241C277.03 15.9312 275.83 16.1631 274.71 16.6141C273.59 17.0651 272.573 17.7263 271.716 18.5598C270.859 19.3934 270.18 20.383 269.716 21.4722C269.253 22.5613 269.014 23.7287 269.014 24.9075C269.014 30.5476 266.71 35.9565 262.61 39.9444C258.511 43.9323 252.95 46.1727 247.152 46.1727H110.617C104.819 46.1721 99.2584 43.9312 95.1586 39.9429C91.0588 35.9547 88.7553 30.5455 88.7547 24.9052C88.755 23.7266 88.5166 22.5594 88.0532 21.4704C87.5897 20.3814 86.9103 19.3919 86.0537 18.5584C85.197 17.7248 84.18 17.0636 83.0607 16.6125C81.9413 16.1614 80.7416 15.9292 79.53 15.9292H49.496C40.7211 15.9292 32.3056 19.3202 26.1008 25.3562C19.896 31.3923 16.4102 39.5789 16.4102 48.1151V671.885C16.4102 680.421 19.896 688.608 26.1008 694.644C32.3056 700.68 40.7211 704.071 49.496 704.071H308.266C317.041 704.071 325.457 700.68 331.661 694.644C337.866 688.608 341.352 680.421 341.352 671.885V48.1196C341.352 43.8927 340.497 39.7071 338.834 35.8019C337.172 31.8967 334.735 28.3483 331.662 25.3593C328.59 22.3703 324.943 19.9993 320.928 18.3817C316.914 16.764 312.611 15.9314 308.266 15.9314Z" fill="white"/>
<path d="M200.42 29.7345H158.436C158.032 29.7345 157.632 29.652 157.258 29.4918C156.885 29.3316 156.545 29.0968 156.26 28.8009C155.974 28.5049 155.747 28.1535 155.593 27.7669C155.438 27.3802 155.359 26.9659 155.359 26.5474C155.359 26.1292 155.439 25.7151 155.594 25.3287C155.748 24.9423 155.975 24.5913 156.261 24.2956C156.546 23.9998 156.885 23.7653 157.259 23.6052C157.632 23.4452 158.032 23.3628 158.436 23.3628H200.42C200.824 23.3625 201.225 23.4446 201.598 23.6045C201.972 23.7644 202.311 23.999 202.597 24.2947C202.883 24.5905 203.11 24.9416 203.265 25.3282C203.419 25.7147 203.499 26.129 203.499 26.5474C203.499 27.3927 203.175 28.2033 202.597 28.801C202.02 29.3987 201.237 29.7345 200.42 29.7345Z" fill="#E2DDDA"/>
<path d="M115.596 29.3396C117.377 27.6113 117.377 24.8091 115.596 23.0808C113.816 21.3525 110.929 21.3525 109.148 23.0808C107.367 24.8091 107.367 27.6113 109.148 29.3396C110.929 31.0679 113.816 31.0679 115.596 29.3396Z" fill="#E2DDDA"/>
<path d="M243.433 30.7965C246.152 30.7965 248.356 28.657 248.356 26.0178C248.356 23.3785 246.152 21.239 243.433 21.239C240.714 21.239 238.51 23.3785 238.51 26.0178C238.51 28.657 240.714 30.7965 243.433 30.7965Z" fill="#E2DDDA"/>
</svg>
