<svg width="214" height="231" viewBox="0 0 214 231" fill="none" xmlns="http://www.w3.org/2000/svg">
<path opacity="0.15" d="M106.543 231C165.385 231 213.086 225.301 213.086 218.272C213.086 211.242 165.385 205.543 106.543 205.543C47.7009 205.543 0 211.242 0 218.272C0 225.301 47.7009 231 106.543 231Z" fill="black"/>
<path d="M35.1027 202.026C35.1994 204.54 35.0544 207.248 33.4908 209.231C33.1523 209.65 32.7655 210.021 32.3786 210.392C31.2503 211.455 30.0898 212.471 28.8809 213.47C30.1542 213.116 31.5082 213.406 32.83 213.374C33.7326 213.357 34.6192 213.196 35.5057 213.019C36.9242 212.745 38.3587 212.487 39.7772 212.213C40.5992 212.052 41.244 211.81 41.6309 211.069C40.9055 209.892 40.5509 208.635 40.3252 207.265C40.0512 205.685 40.3575 204.057 40.4219 202.445C40.4703 201.043 40.3252 199.624 39.9867 198.254" fill="#FFBEC6"/>
<path d="M38.5345 205.249C39.2276 206.716 39.5339 208.344 39.421 209.94C39.421 209.972 39.421 210.02 39.4371 210.053C39.4855 210.133 39.5983 210.133 39.695 210.101C39.9207 210.053 40.1303 210.02 40.3559 209.972C40.6461 209.908 40.9523 209.843 41.2102 209.698C40.8234 208.924 40.501 208.102 40.3559 207.248C40.0819 205.668 40.3882 204.04 40.4526 202.428C40.501 201.026 40.3559 199.608 40.0174 198.238L35.1334 202.009C35.1495 202.59 35.1657 203.186 35.1495 203.782C35.8265 203.847 36.5196 203.573 37.1805 203.766C37.8091 203.976 38.2444 204.621 38.5345 205.249Z" fill="#FDA893"/>
<path d="M42.5323 214.888C42.5323 214.888 42.7096 216.484 40.9366 216.726C39.4214 216.935 28.1221 217.499 24.8016 217.661C24.2697 217.693 23.8184 217.242 23.8667 216.71C23.9151 216.097 24.0924 215.34 24.6243 214.711C25.6398 213.502 30.7011 215.759 30.8784 215.807C31.0557 215.855 35.9236 216.258 36.9874 216.033C38.0352 215.807 42.5323 214.888 42.5323 214.888Z" fill="black"/>
<path d="M40.6793 208.553C38.7612 210.117 36.0371 210.343 33.8288 209.198C33.7321 209.15 33.6354 209.102 33.5387 209.102C33.4258 209.102 33.313 209.182 33.2163 209.263C31.4432 210.665 32.0074 210.794 30.0248 211.89C28.3 212.841 26.8332 212.954 25.2536 214.131C24.9634 214.356 24.6572 214.582 24.4799 214.904C24.3026 215.227 24.1091 216.613 24.367 216.887C24.6088 217.129 24.9957 217.145 25.3342 217.145C26.1079 217.145 38.3421 216.597 41.5175 215.936C41.8882 215.855 42.3234 215.742 42.5007 215.388C42.5974 215.194 42.5974 214.953 42.5813 214.727C42.4201 212.583 41.7593 210.439 40.6793 208.553Z" fill="#1A1A1A"/>
<path d="M39.1627 204.314C38.2923 202.96 37.9215 201.365 37.3413 199.866C36.8255 198.56 36.1485 197.319 35.2942 196.19L32.2961 201.59C33.376 203.863 34.3109 206.41 33.6662 208.844C33.5211 209.36 33.3116 209.859 33.102 210.343C32.4734 211.761 31.8125 213.164 31.1033 214.55C32.1349 213.712 33.4889 213.454 34.6978 212.906C35.5198 212.535 36.2613 212.035 37.0189 211.536C38.2278 210.73 39.4206 209.924 40.6295 209.102C41.3226 208.634 41.8223 208.151 41.8706 207.312C40.7262 206.506 39.9042 205.491 39.1627 204.314Z" fill="#FDA893"/>
<g opacity="0.1">
<path opacity="0.1" d="M36.7147 203.186C37.9397 204.266 38.8585 205.636 39.3743 207.151C39.3904 207.183 39.4065 207.232 39.4387 207.248C39.5032 207.296 39.616 207.248 39.6966 207.199C39.8739 207.07 40.0674 206.941 40.2447 206.812C40.4865 206.635 40.7444 206.458 40.9217 206.216C40.2608 205.652 39.6322 205.039 39.1647 204.298C38.2943 202.944 37.9236 201.348 37.3433 199.849C36.8275 198.544 36.1505 197.302 35.2962 196.174L32.2981 201.574C32.5399 202.106 32.7817 202.638 33.0073 203.202C33.6521 202.992 34.184 202.46 34.861 202.396C35.5541 202.315 36.1989 202.734 36.7147 203.186Z" fill="black"/>
</g>
<path d="M44.1766 210.326C44.1766 210.326 44.9503 211.487 43.6769 212.406C42.5647 213.196 33.7316 218.37 31.4588 219.691C31.1042 219.901 30.669 219.933 30.2983 219.788C29.5729 219.498 28.493 218.902 28.7025 217.999C29.0088 216.661 35.408 215.775 35.5691 215.742C35.7303 215.71 39.6472 214.082 40.3564 213.47C41.0818 212.841 44.1766 210.326 44.1766 210.326Z" fill="black"/>
<path d="M40.0025 205.378C38.858 207.586 36.4402 208.86 33.9579 208.683C33.8612 208.683 33.7484 208.666 33.6516 208.715C33.5388 208.763 33.4743 208.876 33.426 208.989C32.346 210.988 30.0894 215.259 29.1061 216.968C28.9288 217.29 28.7354 217.628 28.7032 217.983C28.6709 218.354 30.1377 219.224 30.4924 219.353C30.8147 219.482 31.1693 219.353 31.4917 219.208C32.2009 218.902 41.0502 213.695 43.6937 211.842C44.016 211.616 44.3545 211.342 44.3868 210.955C44.4029 210.73 44.3062 210.52 44.1934 210.327C43.1779 208.392 41.7433 206.7 40.0025 205.378Z" fill="#1A1A1A"/>
<path d="M52.4608 131.006L37.8733 141.918C36.5999 161.648 34.6334 181.345 31.9576 200.929C34.9396 201.494 37.9538 201.864 40.9681 202.042C43.7083 186.761 46.4485 171.48 49.1887 156.2C49.6884 153.411 50.188 150.606 50.6877 147.818C51.6871 142.257 52.6865 136.647 52.4608 131.006Z" fill="#006049"/>
<g opacity="0.37">
<path opacity="0.37" d="M35.0525 198.06C34.1337 196.626 34.2304 194.611 34.3593 192.789C34.714 188.131 35.0847 183.44 35.939 178.879C36.7449 174.559 36.7288 170.449 37.4864 166.129C37.9055 163.743 38.7114 160.987 39.9203 158.907C44.079 151.815 47.4962 151.606 50.0268 143.804C50.317 142.885 49.4788 134.31 49.3015 133.407L37.8733 141.967C36.5999 161.696 34.6334 181.393 31.9576 200.978C34.7784 201.51 37.6153 201.864 40.4845 202.058C39.195 200.123 36.3742 200.091 35.0525 198.06Z" fill="#020933"/>
</g>
<path d="M28.6376 170.594C34.8917 163.356 40.9362 155.926 46.7712 148.35C50.1884 143.901 53.7023 138.936 53.5895 133.327L38.5023 133.504C35.9072 135.6 34.0213 138.437 32.1998 141.225C26.2842 150.332 20.6749 159.633 15.3879 169.111C14.9849 169.82 14.5819 170.561 14.4691 171.383C14.3079 172.56 14.7915 173.705 15.2751 174.785C18.5633 182.264 22.1739 189.598 26.0908 196.771L26.0424 196.803C27.6704 199.898 29.3952 202.96 31.1843 205.974C32.9574 205.088 34.6499 204.089 36.294 202.992C37.4546 202.38 38.5829 201.703 39.6306 200.929C35.5042 193.321 31.5067 185.633 27.6382 177.895C27.074 176.751 26.4776 175.542 26.6066 174.269C26.7355 172.834 27.7188 171.657 28.6376 170.594Z" fill="#006049"/>
<path d="M50.5592 89.1935C50.527 89.1129 50.4625 89.0645 50.3819 89.0162C48.5927 87.8234 47.5128 85.7602 47.1259 83.6486C46.739 81.537 46.997 79.3449 47.4483 77.2494L46.0782 79.4094C46.0943 79.3127 46.1265 79.1998 46.1265 79.1031C46.191 78.6034 46.1427 78.0876 46.0621 77.5718C45.6752 75.1218 44.5469 72.7845 42.8866 70.9309C42.3547 70.3345 41.7583 69.7864 41.033 69.4157C40.3238 69.045 39.4695 68.8999 38.7119 69.1094L33.6506 73.4454C33.2637 75.557 32.893 77.8458 33.8279 79.7962C34.0052 80.1669 34.2308 80.5216 34.3437 80.9084C34.6338 81.94 34.1019 83.0039 33.5861 83.9388C33.8601 84.4062 34.7466 84.1483 35.1818 84.519C35.3914 84.6963 35.5365 84.9542 35.6815 85.196C36.4875 86.6306 37.4224 88.0007 38.4701 89.2902C38.5829 89.4192 38.6958 89.5481 38.8408 89.6287C39.1793 89.7899 39.5823 89.5803 39.8885 89.3547C40.8718 88.6455 41.6939 87.7912 42.4353 86.8401C42.9189 87.7428 43.1768 88.7744 43.1284 89.806C43.0962 90.7087 42.8383 91.5791 42.5965 92.4334C42.387 93.1426 42.1935 93.8357 41.984 94.5449C42.1935 94.6578 42.4514 94.5611 42.661 94.4482C45.4334 93.191 48.0286 91.5468 50.3658 89.5803C50.4947 89.4836 50.6076 89.3386 50.5592 89.1935Z" fill="#FDA893"/>
<path d="M49.7855 76.6692C49.6565 76.3146 49.5114 72.172 48.5604 70.544C47.9801 69.5447 47.0453 68.7065 45.9814 68.2713H45.9653C45.9492 68.2713 45.9492 68.2551 45.9331 68.2551C43.483 67.1107 40.5171 67.4976 38.2766 68.094C38.2766 68.094 31.8291 70.2378 27.1707 67.9973C26.8645 67.8522 26.5421 68.1262 26.6388 68.4486C26.9773 69.4479 27.751 70.9792 27.6865 71.3983C27.477 72.9618 27.8961 74.6221 28.9277 75.8149C29.9593 77.0077 31.6034 77.6685 33.1508 77.4268C34.0696 77.2817 34.9239 76.8465 35.8265 76.6208C36.7292 76.3952 37.793 76.4435 38.4539 77.1044C38.7602 77.4106 38.9375 77.8297 39.2115 78.1682C39.6951 78.7646 40.4365 79.1031 41.1941 79.216C41.9517 79.3127 41.9678 79.2643 42.7093 79.0548C42.806 78.1843 43.0317 77.2495 43.8215 76.7337C44.2245 76.4758 44.7403 76.4113 45.1593 76.6047C45.8363 76.9271 45.9169 77.6847 45.7719 78.3294C45.659 78.8291 45.4334 79.2965 45.3367 79.7962C45.0626 81.1986 45.6913 82.8105 47.0614 83.2618C47.9318 82.3914 49.0117 81.3759 49.5276 80.2637C50.0434 79.1192 50.2207 77.8136 49.7855 76.6692Z" fill="#1A1A1A"/>
<path d="M8.66678 93.5619C12.7126 97.5432 17.5483 100.912 21.9487 104.507C22.5773 105.022 23.4961 104.12 22.8513 103.604C18.467 100.009 13.6153 96.6406 9.56944 92.6592C8.98916 92.0789 8.0865 92.9816 8.66678 93.5619Z" fill="#030A33"/>
<path d="M22.2382 105.587C21.8836 105.167 21.1905 104.571 21.0132 104.055C20.7069 103.169 20.9648 102.153 20.5619 101.299C20.4007 100.944 20.1105 100.638 19.8526 100.348C19.0306 99.4613 18.2085 98.5748 17.3864 97.6722C17.3542 97.6399 17.3058 97.5916 17.2575 97.5593C17.0479 97.4465 16.8062 97.6883 16.8223 97.9301C16.8384 98.1557 16.9835 98.3491 17.1285 98.5264C17.8055 99.3969 18.2569 100.461 18.3858 101.573C16.3871 100.461 14.3561 99.3163 12.8571 97.5754C12.1317 96.7373 11.4547 95.7218 10.3909 95.4478C11.2613 97.8172 13.0182 99.7354 14.7107 101.589C15.2749 102.202 15.8552 102.83 16.4193 103.443C18.4986 105.699 20.578 107.972 23.028 109.826L25.9294 107.859C24.9945 107.779 22.8346 106.312 22.2382 105.587Z" fill="#FDA893"/>
<path d="M49.4641 87.9683C48.3519 90.0476 45.9502 91.0147 43.7742 91.9174C43.4034 92.0624 43.0166 92.2397 42.7426 92.5299C42.5653 92.7233 42.4524 92.949 42.3557 93.1908C41.1307 95.7698 39.9863 98.4294 39.4543 101.234C39.1803 102.685 39.0675 104.168 38.9546 105.634C38.2777 114.774 37.6007 123.929 36.9237 133.069C36.9076 133.198 36.9076 133.327 36.9398 133.456C37.0849 134.116 38.0198 134.149 38.6967 134.068C44.016 133.456 49.1579 135.938 54.4448 136.824C54.6383 136.857 54.88 136.873 54.9768 136.712C55.0251 136.647 55.0412 136.567 55.0412 136.486C55.5732 132.198 55.686 127.846 55.3636 123.526C55.2508 122.027 55.1057 120.528 55.1379 119.029C55.1863 117.159 55.5248 115.322 55.7343 113.468C56.089 110.261 56.0406 107.021 55.9761 103.781C55.9439 101.782 55.8955 99.7834 55.412 97.8491C54.4932 94.1579 52.0431 91.047 49.6414 88.0811" fill="#555555"/>
<path opacity="0.15" d="M51.5902 93.7551L35.8905 121.06C36.5514 122.995 38.3083 124.526 40.3393 124.913C42.3703 125.3 43.2729 123.559 44.6108 122.011C45.2717 121.238 45.7391 120.319 46.1582 119.384C49.1402 112.856 52.2995 106.795 52.9281 99.6707C53.1215 97.5914 53.1054 95.2219 51.5902 93.7551Z" fill="black"/>
<path d="M50.7539 93.0458L49.8351 91.0955C48.0621 91.7724 46.692 93.2715 45.7893 94.9479C44.8705 96.6242 44.3547 98.4618 43.7906 100.283C42.2593 105.216 40.3895 110.035 38.1651 114.71C33.2327 112.243 27.6073 108.842 22.6266 106.005C22.1108 108.165 20.5795 110.164 20.5795 110.357C20.5795 110.519 26.076 116.386 29.2514 118.61C31.7498 120.351 34.0064 121.834 36.924 122.866C37.9233 123.22 39.2128 124.558 40.6313 124.3C41.7113 124.091 49.1743 110.051 51.576 102.379C52.0757 100.815 52.4947 99.1871 52.4625 97.543C52.4464 95.915 51.9306 94.2225 50.7539 93.0458Z" fill="#777777"/>
<path d="M187.613 216.615C187.613 216.937 184.389 217.211 180.424 217.211C176.459 217.211 173.235 216.937 173.235 216.615C173.235 216.293 176.459 216.019 180.424 216.019C184.389 216.019 187.613 216.276 187.613 216.615Z" fill="#232733"/>
<path d="M194.351 194.274C189.934 193.114 183.196 202.269 181.133 211.215V198.191C182.165 196.37 184.131 193.613 187.694 190.712C193.238 186.199 198.348 180.396 193.915 179.235C189.773 178.139 183.567 186.15 181.133 194.532V177.817C181.842 176.705 183.019 175.254 184.889 173.723C188.387 170.87 191.594 167.227 188.806 166.485C186.388 165.841 182.858 170.128 181.133 174.964V169.548C181.423 167.872 181.826 165.47 182.938 163.036C185.501 157.362 186.904 151.527 183.503 151.962C180.118 152.398 177.909 162.504 179.763 170.257V173.046C178.506 167.372 174.218 161.489 171.413 162.23C168.625 162.972 171.849 166.614 175.33 169.467C177.99 171.627 179.231 173.658 179.763 174.754V187.923C177.748 178.945 170.962 169.677 166.513 170.838C162.097 171.998 167.19 177.801 172.735 182.314C176.926 185.731 178.909 188.923 179.747 190.664V206.46C177.603 197.643 170.978 188.746 166.626 189.89C162.21 191.051 165.998 195.29 172.219 200.416C176.459 203.897 178.715 207.572 179.747 209.571V217.018C180.247 217.163 180.698 217.163 181.117 217.018V214.052C181.987 212.295 183.97 209.136 188.096 205.767C193.657 201.238 198.767 195.435 194.351 194.274Z" fill="#48C9FF"/>
<path d="M149.575 0H71.029C62.6909 0 55.9315 6.55949 55.9315 14.651V203.522C55.9315 211.614 62.6909 218.173 71.029 218.173H149.575C157.913 218.173 164.672 211.614 164.672 203.522V14.651C164.672 6.55949 157.913 0 149.575 0Z" fill="#7CA8BB"/>
<path d="M149.341 4.82759H140.242C139.875 4.8275 139.512 4.89779 139.172 5.03444C138.833 5.1711 138.525 5.37144 138.265 5.62403C138.006 5.87661 137.8 6.17649 137.659 6.50652C137.519 6.83656 137.446 7.19028 137.446 7.54749C137.446 9.25655 136.748 10.8955 135.506 12.104C134.264 13.3124 132.579 13.9912 130.822 13.9912H89.4491C87.6922 13.9911 86.0073 13.312 84.765 12.1035C83.5226 10.895 82.8246 9.25593 82.8244 7.54681C82.8245 7.18966 82.7523 6.83599 82.6119 6.506C82.4714 6.17601 82.2656 5.87616 82.006 5.62359C81.7464 5.37101 81.4382 5.17065 81.099 5.03396C80.7599 4.89726 80.3963 4.8269 80.0292 4.8269H70.9283C68.2694 4.8269 65.7193 5.85444 63.8391 7.68347C61.959 9.5125 60.9027 11.9932 60.9027 14.5798V203.594C60.9027 206.18 61.959 208.661 63.8391 210.49C65.7193 212.319 68.2694 213.347 70.9283 213.347H149.341C151.999 213.347 154.55 212.319 156.43 210.49C158.31 208.661 159.366 206.18 159.366 203.594V14.5812C159.366 13.3004 159.107 12.0321 158.603 10.8487C158.099 9.66534 157.361 8.59011 156.43 7.68439C155.499 6.77868 154.394 6.06022 153.177 5.57005C151.961 5.07988 150.657 4.82759 149.341 4.82759Z" fill="white"/>
<path d="M116.663 9.01008H103.941C103.818 9.01008 103.697 8.9851 103.584 8.93656C103.471 8.88802 103.368 8.81687 103.281 8.72718C103.195 8.6375 103.126 8.53103 103.079 8.41387C103.032 8.2967 103.008 8.17114 103.009 8.04435C103.009 7.91763 103.033 7.79214 103.08 7.67506C103.126 7.55798 103.195 7.4516 103.282 7.36199C103.368 7.27238 103.471 7.2013 103.584 7.1528C103.697 7.10431 103.818 7.07935 103.941 7.07935H116.663C116.785 7.07925 116.907 7.10414 117.02 7.15259C117.133 7.20105 117.236 7.27212 117.322 7.36173C117.409 7.45135 117.478 7.55777 117.525 7.67489C117.572 7.79202 117.596 7.91757 117.596 8.04435C117.596 8.30048 117.497 8.54612 117.322 8.72723C117.147 8.90834 116.91 9.01008 116.663 9.01008Z" fill="#E2DDDA"/>
<path d="M90.9593 8.89041C91.4989 8.36669 91.4989 7.51758 90.9593 6.99387C90.4198 6.47015 89.545 6.47016 89.0054 6.99387C88.4658 7.51759 88.4658 8.36669 89.0054 8.89041C89.545 9.41412 90.4198 9.41412 90.9593 8.89041Z" fill="#E2DDDA"/>
<path d="M129.695 9.3319C130.519 9.3319 131.187 8.68358 131.187 7.88384C131.187 7.08411 130.519 6.43579 129.695 6.43579C128.871 6.43579 128.203 7.08411 128.203 7.88384C128.203 8.68358 128.871 9.3319 129.695 9.3319Z" fill="#E2DDDA"/>
<path d="M108.281 127.482C107.387 127.482 106.492 127.188 105.745 126.575L93.786 116.846C92.0707 115.45 91.8011 112.913 93.2102 111.198C94.607 109.483 97.1433 109.213 98.8586 110.622L108.024 118.084L121.44 104.802C123.021 103.246 125.557 103.258 127.126 104.827C128.682 106.407 128.669 108.943 127.101 110.512L111.111 126.33C110.327 127.09 109.31 127.482 108.281 127.482Z" fill="#48C9FF"/>
<path d="M110.253 90.5278H110.314C110.963 90.5401 111.588 90.295 112.054 89.8417C112.519 89.3883 112.777 88.7634 112.789 88.114V81.7671C112.789 81.1055 112.532 80.4684 112.054 80.0028C111.319 79.2676 110.216 79.0716 109.26 79.4881C108.317 79.9047 107.729 80.8727 107.778 81.9019V88.114C107.778 88.7634 108.047 89.3883 108.513 89.8417C108.978 90.2828 109.603 90.5401 110.253 90.5278Z" fill="black"/>
<path d="M110.314 140.592H110.253C109.604 140.58 108.979 140.825 108.513 141.278C108.048 141.732 107.79 142.357 107.778 143.006V149.353C107.778 150.088 108.109 150.786 108.672 151.264C109.236 151.742 109.983 151.938 110.706 151.816C111.944 151.558 112.814 150.456 112.777 149.194V142.994C112.777 142.344 112.507 141.719 112.042 141.266C111.589 140.825 110.964 140.58 110.314 140.592Z" fill="black"/>
<path d="M97.4612 91.1528C98.0371 92.3536 99.4462 92.8927 100.684 92.3781C101.909 91.8757 102.534 90.4912 102.093 89.2291L99.679 83.3723C99.3972 82.6739 98.809 82.1471 98.0861 81.9265C97.3632 81.7182 96.579 81.8408 95.9542 82.2696C94.9739 83.0293 94.6309 84.3648 95.1332 85.4921L97.4612 91.1528Z" fill="black"/>
<path d="M123.118 139.955C122.542 138.755 121.133 138.215 119.896 138.73C118.67 139.232 118.046 140.617 118.487 141.879L120.9 147.736C121.427 149.01 122.898 149.623 124.172 149.096C125.446 148.569 126.059 147.099 125.532 145.824L123.118 139.955Z" fill="black"/>
<path d="M88.1612 89.8906C87.6711 89.3882 86.9849 89.1187 86.2743 89.1554C85.5759 89.1922 84.9142 89.5108 84.4609 90.0499C83.64 91.1036 83.7502 92.6107 84.7059 93.5296L89.1047 97.9283C89.7418 98.5655 90.6608 98.8105 91.5184 98.5777C92.3884 98.3449 93.0623 97.671 93.2951 96.8011C93.5279 95.9312 93.2828 95.0122 92.6457 94.3873L88.1612 89.8906Z" fill="black"/>
<path d="M131.464 133.192C130.826 132.554 129.907 132.309 129.05 132.542C128.18 132.775 127.506 133.449 127.273 134.319C127.04 135.189 127.285 136.108 127.923 136.733L132.321 141.131C133.191 142.038 134.588 142.197 135.642 141.511C136.242 141.082 136.634 140.408 136.695 139.673C136.757 138.938 136.487 138.215 135.973 137.688L131.464 133.192Z" fill="black"/>
<path d="M100.733 138.693C100.132 138.411 99.4462 138.387 98.8335 138.632C98.2209 138.865 97.7185 139.355 97.4612 139.955L95.0474 145.812C94.5206 147.086 95.1209 148.557 96.4075 149.083C97.694 149.61 99.1521 149.01 99.679 147.723L102.105 141.867C102.35 141.266 102.338 140.592 102.08 139.992C101.823 139.404 101.333 138.938 100.733 138.693Z" fill="black"/>
<path d="M82.844 118.059C83.4934 118.059 84.1183 117.79 84.5716 117.324C85.025 116.859 85.27 116.234 85.2578 115.584V115.523C85.27 114.874 85.025 114.249 84.5716 113.783C84.1183 113.318 83.4934 113.06 82.844 113.048H76.4971C75.7987 113.048 75.1248 113.342 74.6469 113.857C74.1691 114.371 73.9363 115.07 73.9975 115.768C74.1568 117.091 75.2963 118.084 76.6319 118.047H82.844V118.059Z" fill="black"/>
<path d="M144.083 113.048H137.736C137.087 113.048 136.462 113.318 136.008 113.783C135.555 114.249 135.31 114.874 135.322 115.523V115.584C135.31 116.234 135.555 116.859 136.008 117.324C136.462 117.79 137.087 118.047 137.736 118.059H143.936C145.198 118.084 146.301 117.214 146.558 115.989C146.68 115.266 146.484 114.518 146.007 113.955C145.516 113.379 144.818 113.048 144.083 113.048Z" fill="black"/>
<path d="M87.1696 125.166C86.9368 124.554 86.4711 124.051 85.8708 123.782C85.2704 123.512 84.5842 123.5 83.9716 123.745L78.1148 126.171C77.1836 126.563 76.571 127.47 76.5587 128.487C76.5955 129.357 77.0611 130.141 77.7962 130.594C78.5437 131.047 79.4504 131.084 80.2345 130.717L85.883 128.389C86.4834 128.131 86.9613 127.653 87.1941 127.041C87.4391 126.44 87.4269 125.754 87.1696 125.166Z" fill="black"/>
<path d="M78.1139 104.937L83.9707 107.363C85.2328 107.804 86.6051 107.179 87.1197 105.954C87.622 104.729 87.0829 103.308 85.8944 102.732L80.2459 100.404C79.1064 99.9014 77.7831 100.244 77.0235 101.225C76.5946 101.837 76.4598 102.621 76.6804 103.344C76.8764 104.067 77.4155 104.655 78.1139 104.937Z" fill="black"/>
<path d="M142.466 126.171L136.609 123.745C135.347 123.304 133.975 123.929 133.46 125.154C132.958 126.379 133.497 127.8 134.685 128.376L140.542 130.802C141.816 131.329 143.287 130.729 143.814 129.442C144.353 128.168 143.74 126.698 142.466 126.171Z" fill="black"/>
<path d="M92.5731 133.241C92.1197 132.775 91.5071 132.505 90.8577 132.493C90.2083 132.481 89.5834 132.738 89.1178 133.191L84.6211 137.688C84.0942 138.215 83.8369 138.938 83.8982 139.673C83.9594 140.408 84.3393 141.082 84.9519 141.511C86.0056 142.209 87.4024 142.05 88.2724 141.131L92.6711 136.733C93.1367 136.267 93.3817 135.63 93.3695 134.968C93.3327 134.306 93.0509 133.682 92.5731 133.241Z" fill="black"/>
<path d="M120.35 91.2751C120.657 91.3977 121 91.3977 121.306 91.2751C121.612 91.1526 121.857 90.9076 121.98 90.6013L124.369 84.818C124.614 84.1808 124.308 83.4702 123.683 83.2129C123.058 82.9556 122.335 83.2374 122.066 83.8623L119.664 89.6455C119.542 89.9519 119.542 90.2949 119.664 90.6013C119.799 90.9076 120.044 91.1526 120.35 91.2751Z" fill="black"/>
<path d="M129.759 97.3403C130.09 97.3403 130.409 97.2055 130.641 96.9727L135.065 92.5495C135.555 92.0594 135.555 91.263 135.065 90.7729C134.574 90.2827 133.778 90.2827 133.288 90.7729L128.865 95.1961C128.509 95.5514 128.399 96.0905 128.595 96.5561C128.791 97.034 129.245 97.3403 129.759 97.3403Z" fill="black"/>
<path d="M134.562 105.501C134.685 105.807 134.93 106.052 135.236 106.175C135.543 106.297 135.886 106.297 136.192 106.175L141.975 103.785C142.612 103.516 142.919 102.793 142.649 102.156C142.38 101.519 141.657 101.212 141.02 101.482L135.236 103.871C134.93 103.994 134.685 104.239 134.562 104.545C134.44 104.851 134.44 105.194 134.562 105.501Z" fill="black"/>
</svg>
