<svg width="25" height="5" viewBox="0 0 25 5" fill="none" xmlns="http://www.w3.org/2000/svg">
<path d="M2.50002 5.00005C3.88075 5.00005 5.00005 3.88075 5.00005 2.50002C5.00005 1.1193 3.88075 0 2.50002 0C1.1193 0 0 1.1193 0 2.50002C0 3.88075 1.1193 5.00005 2.50002 5.00005Z" fill="black"/>
<path d="M12.501 5.00005C13.8817 5.00005 15.001 3.88075 15.001 2.50002C15.001 1.1193 13.8817 0 12.501 0C11.1203 0 10.001 1.1193 10.001 2.50002C10.001 3.88075 11.1203 5.00005 12.501 5.00005Z" fill="black"/>
<path d="M22.5 5.00005C23.8807 5.00005 25 3.88075 25 2.50002C25 1.1193 23.8807 0 22.5 0C21.1193 0 20 1.1193 20 2.50002C20 3.88075 21.1193 5.00005 22.5 5.00005Z" fill="black"/>
</svg>
