<svg width="20" height="23" viewBox="0 0 20 23" fill="none" xmlns="http://www.w3.org/2000/svg">
<path d="M9.87433 22.5711C10.6226 22.5711 11.3402 22.2739 11.8692 21.7448C12.3983 21.2157 12.6956 20.4981 12.6956 19.7499H7.05309C7.0531 20.4981 7.35033 21.2157 7.87942 21.7448C8.4085 22.2739 9.12609 22.5711 9.87433 22.5711ZM9.87433 2.7068L8.75007 2.93391C7.47481 3.19375 6.3285 3.88623 5.50515 4.89414C4.68181 5.90205 4.232 7.16349 4.23186 8.46495C4.23186 9.35082 4.04283 11.5641 3.58438 13.7435C3.35868 14.8254 3.05399 15.9525 2.64914 16.9287H17.0995C16.6947 15.9525 16.3914 14.8268 16.1643 13.7435C15.7058 11.5641 15.5168 9.35082 15.5168 8.46495C15.5163 7.16373 15.0664 5.90263 14.2431 4.895C13.4197 3.88738 12.2736 3.19511 10.9986 2.93532L9.87433 2.70539V2.7068ZM18.6484 16.9287C18.963 17.5592 19.3269 18.0586 19.7487 18.3393H0C0.421775 18.0586 0.785715 17.5592 1.10028 16.9287C2.36984 14.3895 2.82124 9.70629 2.82124 8.46495C2.82124 5.05125 5.2475 2.2018 8.47077 1.5515C8.45108 1.35536 8.47272 1.15727 8.53429 0.97001C8.59587 0.782746 8.696 0.610466 8.82825 0.464281C8.96049 0.318097 9.12191 0.201252 9.30209 0.121284C9.48227 0.0413163 9.67721 0 9.87433 0C10.0715 0 10.2664 0.0413163 10.4466 0.121284C10.6268 0.201252 10.7882 0.318097 10.9204 0.464281C11.0527 0.610466 11.1528 0.782746 11.2144 0.97001C11.2759 1.15727 11.2976 1.35536 11.2779 1.5515C12.8723 1.87581 14.3056 2.74117 15.3352 4.00105C16.3647 5.26093 16.9272 6.8379 16.9274 8.46495C16.9274 9.70629 17.3788 14.3895 18.6484 16.9287Z" fill="black"/>
</svg>
