<svg width="19" height="15" viewBox="0 0 19 15" fill="none" xmlns="http://www.w3.org/2000/svg">
<path d="M18.3033 2.27249C18.2472 2.19963 18.1752 2.14058 18.0927 2.09988C18.0103 2.05917 17.9196 2.03789 17.8276 2.03767H3.91922L3.64828 1.17668C3.61852 1.08423 3.56683 1.00036 3.49764 0.932208C3.42844 0.86406 3.34379 0.813663 3.2509 0.785315L0.782305 0.0266749C0.7064 0.00334976 0.626643 -0.00479638 0.54759 0.00270179C0.468536 0.0102 0.391733 0.0331955 0.321566 0.0703755C0.179858 0.145464 0.0737829 0.27377 0.0266757 0.427068C-0.0204316 0.580367 -0.00471195 0.746099 0.0703764 0.887807C0.145465 1.02952 0.273771 1.13559 0.427069 1.1827L2.58859 1.845L5.34619 10.5573L4.36477 11.3641L4.2865 11.4424C4.0438 11.7234 3.90629 12.0801 3.8975 12.4513C3.88871 12.8225 4.0092 13.1853 4.23833 13.4775C4.40244 13.6771 4.61097 13.8355 4.84726 13.94C5.08354 14.0446 5.34101 14.0924 5.59907 14.0796H15.648C15.8077 14.0796 15.9609 14.0161 16.0738 13.9032C16.1867 13.7903 16.2501 13.6372 16.2501 13.4775C16.2501 13.3178 16.1867 13.1647 16.0738 13.0517C15.9609 12.9388 15.8077 12.8754 15.648 12.8754H5.50273C5.4334 12.873 5.36585 12.8528 5.30661 12.8167C5.24736 12.7806 5.19843 12.7299 5.16453 12.6693C5.13064 12.6088 5.11292 12.5406 5.1131 12.4712C5.11328 12.4018 5.13135 12.3336 5.16556 12.2733L6.61661 11.0691H15.9069C16.0445 11.0731 16.1792 11.0299 16.2888 10.9466C16.3983 10.8634 16.4761 10.7451 16.509 10.6115L18.4357 2.78427C18.4541 2.69451 18.4516 2.60175 18.4287 2.51307C18.4057 2.42438 18.3628 2.3421 18.3033 2.27249Z" fill="#CB4BFF"/>
</svg>
