<svg width="14" height="11" viewBox="0 0 14 11" fill="none" xmlns="http://www.w3.org/2000/svg">
<path fill-rule="evenodd" clip-rule="evenodd" d="M13.3705 5.84654L12.0454 4.40609C11.9576 4.31968 11.8394 4.27124 11.7163 4.27124C11.5931 4.27124 11.4749 4.31968 11.3871 4.40609L10.0603 5.84654C10.017 5.88938 9.98267 5.94038 9.95921 5.99658C9.93575 6.05279 9.92367 6.11309 9.92367 6.17399C9.92367 6.2349 9.93575 6.2952 9.95921 6.35141C9.98267 6.40761 10.017 6.45861 10.0603 6.50145H11.1581C10.9527 7.27287 10.5474 7.97642 9.98298 8.54097C9.41858 9.10552 8.71514 9.51105 7.94377 9.71659C7.04232 9.9524 6.09028 9.90654 5.21567 9.58518C4.34105 9.26382 3.58581 8.68236 3.0515 7.91899L2.12598 8.55608C2.79268 9.50859 3.7351 10.2341 4.82646 10.6349C5.91783 11.0358 7.10578 11.0927 8.2305 10.7982C9.24204 10.53 10.1593 9.98634 10.8802 9.22773C11.601 8.46912 12.0972 7.52534 12.3135 6.50145H13.3696C13.4129 6.45861 13.4472 6.40764 13.4707 6.35147C13.4942 6.2953 13.5063 6.23505 13.5064 6.17417C13.5064 6.1133 13.4945 6.05301 13.4712 5.99678C13.4478 5.94055 13.4136 5.88949 13.3705 5.84654Z" fill="#48C9FF"/>
<path fill-rule="evenodd" clip-rule="evenodd" d="M3.76663 5.09399C3.80992 5.05115 3.84429 5.00015 3.86775 4.94395C3.89121 4.88774 3.90329 4.82744 3.90329 4.76653C3.90329 4.70563 3.89121 4.64533 3.86775 4.58912C3.84429 4.53292 3.80992 4.48192 3.76663 4.43908H2.53062C2.7409 3.67739 3.14679 2.98397 3.70798 2.42769C4.26918 1.87141 4.96614 1.47163 5.72965 1.26805C6.63113 1.03198 7.58331 1.0779 8.4579 1.39961C9.33248 1.72132 10.0874 2.30338 10.6211 3.06735L11.5474 2.42941C10.8805 1.47639 9.93777 0.750473 8.84595 0.349324C7.75413 -0.0518246 6.56564 -0.108963 5.44037 0.185596C4.43663 0.452572 3.52575 0.990668 2.80751 1.74093C2.08927 2.49119 1.59139 3.42466 1.36842 4.43908H0.136659C0.0933632 4.48192 0.0589926 4.53292 0.0355353 4.58912C0.0120781 4.64533 0 4.70563 0 4.76653C0 4.82744 0.0120781 4.88774 0.0355353 4.94395C0.0589926 5.00015 0.0933632 5.05115 0.136659 5.09399L1.52621 6.48269C1.61397 6.56911 1.73219 6.61754 1.85536 6.61754C1.97852 6.61754 2.09675 6.56911 2.18451 6.48269L3.76663 5.09399Z" fill="#48C9FF"/>
</svg>
