<svg width="5" height="10" viewBox="0 0 5 10" fill="none" xmlns="http://www.w3.org/2000/svg">
<path d="M0.829615 9.99995C0.936345 10.0003 1.0418 9.97676 1.13823 9.93103C1.23466 9.8853 1.31962 9.81855 1.38686 9.73569L4.83748 5.45038C4.94256 5.32258 5 5.16228 5 4.99685C5 4.83142 4.94256 4.67112 4.83748 4.54332L1.26541 0.258013C1.14414 0.112158 0.96989 0.0204347 0.780981 0.00302221C0.592071 -0.0143902 0.403979 0.0439342 0.258083 0.165165C0.112188 0.286395 0.0204401 0.460601 0.00302267 0.649459C-0.0143943 0.838317 0.0439458 1.02636 0.165209 1.17221L3.35864 5.00042L0.272372 8.82863C0.185011 8.93347 0.129518 9.06113 0.112458 9.19651C0.0953979 9.33189 0.117485 9.46932 0.176107 9.59254C0.234729 9.71576 0.327431 9.81962 0.443245 9.89182C0.559059 9.96402 0.693138 10.0015 0.829615 9.99995Z" fill="#48C9FF"/>
</svg>
