<svg width="8" height="13" viewBox="0 0 8 13" fill="none" xmlns="http://www.w3.org/2000/svg">
<path d="M1.32738 12.9999C1.49815 13.0004 1.66688 12.9698 1.82117 12.9103C1.97546 12.8509 2.11139 12.7641 2.21897 12.6564L7.73997 7.08549C7.90809 6.91936 8 6.71097 8 6.49591C8 6.28085 7.90809 6.07246 7.73997 5.90632L2.02465 0.335417C1.83063 0.145805 1.55182 0.0265651 1.24957 0.00392888C0.947313 -0.0187073 0.646366 0.0571145 0.412933 0.214714C0.179501 0.372313 0.0327044 0.598781 0.00483656 0.844297C-0.0230312 1.08981 0.0703135 1.33426 0.264335 1.52388L5.37383 6.50055L0.435795 11.4772C0.296018 11.6135 0.207228 11.7795 0.179933 11.9555C0.152637 12.1315 0.187976 12.3101 0.281772 12.4703C0.375566 12.6305 0.52389 12.7655 0.709193 12.8594C0.894495 12.9532 1.10902 13.002 1.32738 12.9999Z" fill="white"/>
</svg>
