<svg width="21" height="20" viewBox="0 0 21 20" fill="none" xmlns="http://www.w3.org/2000/svg">
<path d="M19.3716 9.47368V19.4737C19.3716 19.7642 19.1378 20 18.8498 20H9.45624V12.1053C9.45624 11.8147 9.22244 11.5789 8.93437 11.5789H4.75947C4.4714 11.5789 4.2376 11.8147 4.2376 12.1053V20H2.15015C1.86208 20 1.62829 19.7642 1.62829 19.4737V9.47368H1.80572C2.56764 9.47368 3.26694 9.09737 3.70008 8.5C3.71052 8.51053 3.71835 8.52632 3.72618 8.53947C4.17498 9.13158 4.85601 9.47368 5.59706 9.47368H6.2546C7.04523 9.47368 7.74713 9.07895 8.17506 8.46842C8.20898 8.51053 8.2429 8.55526 8.27943 8.59737C8.77259 9.15526 9.48233 9.47368 10.2234 9.47368H10.7766C11.5176 9.47368 12.2273 9.15526 12.7205 8.59737C12.757 8.55526 12.7909 8.51053 12.8249 8.46842C13.2528 9.07895 13.9547 9.47368 14.7453 9.47368H15.4029C16.1439 9.47368 16.8249 9.13158 17.2737 8.53947C17.2816 8.52632 17.2894 8.51053 17.2998 8.5C17.733 9.09737 18.4323 9.47368 19.1942 9.47368H19.3716ZM16.7623 16.3158V12.1053C16.7623 11.8147 16.5285 11.5789 16.2405 11.5789H12.5874C12.2993 11.5789 12.0656 11.8147 12.0656 12.1053V16.3158C12.0656 16.6063 12.2993 16.8421 12.5874 16.8421H16.2405C16.5285 16.8421 16.7623 16.6063 16.7623 16.3158ZM3.68939 0C3.27685 0 2.9032 0.245 2.73568 0.625L0.114884 6.57105C-0.0740309 7.00132 -0.0283677 7.47368 0.240131 7.86C0.492713 8.22316 0.920901 8.42105 1.36057 8.42105H1.80572C2.39021 8.42105 2.90685 8.02368 3.06341 7.4579L4.27152 3.06579L5.11694 0H3.68939ZM6.19981 0L4.33937 6.75263C4.22977 7.15263 4.31066 7.57105 4.55855 7.90263C4.80643 8.23158 5.18478 8.42105 5.59706 8.42105H6.2546C6.92259 8.42105 7.47837 7.91842 7.55143 7.25L8.3525 0H6.19981ZM11.5985 0H9.40144L8.66561 6.66842C8.61865 7.11316 8.75955 7.56053 9.05701 7.89474C9.35708 8.23421 9.77196 8.42105 10.2234 8.42105H10.7766C11.228 8.42105 11.6428 8.23421 11.9429 7.89474C12.2404 7.56053 12.3813 7.11316 12.3343 6.66842L11.5985 0ZM14.8001 0H12.6474L13.4485 7.25C13.5216 7.91842 14.0773 8.42105 14.7453 8.42105H15.4029C15.8151 8.42105 16.1935 8.23158 16.4414 7.90263C16.6893 7.57105 16.7701 7.15263 16.6606 6.75263L14.8001 0ZM18.2642 0.625C18.0967 0.245 17.7228 0 17.3105 0H15.883L16.7284 3.06579L17.9365 7.4579C18.0931 8.02368 18.6097 8.42105 19.1942 8.42105H19.6394C20.0793 8.42105 20.5075 8.22316 20.7598 7.86C21.0286 7.47368 21.074 7.00105 20.885 6.57105L18.2642 0.625Z" fill="white"/>
</svg>
