<svg width="13" height="13" viewBox="0 0 13 13" fill="none" xmlns="http://www.w3.org/2000/svg">
<path d="M0.75 12.4375C0.75 12.7141 0.973437 12.9375 1.25 12.9375H5.71875V7.0625H0.75V12.4375ZM6.78125 12.9375H11.25C11.5266 12.9375 11.75 12.7141 11.75 12.4375V7.0625H6.78125V12.9375ZM12 3.3125H9.69375C9.90625 2.97813 10.0312 2.58125 10.0312 2.15625C10.0312 0.967188 9.06406 0 7.875 0C7.22813 0 6.64531 0.2875 6.25 0.740625C5.85469 0.2875 5.27187 0 4.625 0C3.43594 0 2.46875 0.967188 2.46875 2.15625C2.46875 2.58125 2.59219 2.97813 2.80625 3.3125H0.5C0.223437 3.3125 0 3.53594 0 3.8125V6H5.71875V3.3125H6.78125V6H12.5V3.8125C12.5 3.53594 12.2766 3.3125 12 3.3125ZM5.71875 3.25H4.625C4.02187 3.25 3.53125 2.75938 3.53125 2.15625C3.53125 1.55313 4.02187 1.0625 4.625 1.0625C5.22813 1.0625 5.71875 1.55313 5.71875 2.15625V3.25ZM7.875 3.25H6.78125V2.15625C6.78125 1.55313 7.27187 1.0625 7.875 1.0625C8.47812 1.0625 8.96875 1.55313 8.96875 2.15625C8.96875 2.75938 8.47812 3.25 7.875 3.25Z" fill="white"/>
</svg>
