<svg width="40" height="40" viewBox="0 0 40 40" fill="none" xmlns="http://www.w3.org/2000/svg">
<path d="M20 0C8.95536 0 0 8.95536 0 20C0 31.0446 8.95536 40 20 40C31.0446 40 40 31.0446 40 20C40 8.95536 31.0446 0 20 0ZM26.433 20.308L16.683 27.4018C16.6296 27.4402 16.5666 27.4631 16.5009 27.4681C16.4353 27.473 16.3696 27.4597 16.311 27.4297C16.2524 27.3998 16.2032 27.3542 16.1688 27.2981C16.1344 27.2419 16.1162 27.1774 16.1161 27.1116V12.933C16.1159 12.8671 16.1339 12.8024 16.1682 12.746C16.2025 12.6897 16.2518 12.644 16.3105 12.6139C16.3692 12.5839 16.4351 12.5707 16.5008 12.5758C16.5666 12.5809 16.6297 12.6041 16.683 12.6429L26.433 19.7321C26.4791 19.7647 26.5167 19.8079 26.5426 19.858C26.5685 19.9081 26.5821 19.9637 26.5821 20.0201C26.5821 20.0765 26.5685 20.1321 26.5426 20.1822C26.5167 20.2323 26.4791 20.2755 26.433 20.308Z" fill="black"/>
</svg>
