<svg width="17" height="16" viewBox="0 0 17 16" fill="none" xmlns="http://www.w3.org/2000/svg">
<path d="M10.7402 5.89478C11.5537 5.89478 12.2139 6.55499 12.2139 7.36846V10.1053H12.2105V10.9474H4.63159V8.42109H4.63328V7.36846C4.63328 6.55499 5.29264 5.89478 6.10696 5.89478H10.7402Z" fill="#48C9FF"/>
<path d="M16.8421 7.36846C16.8421 6.97761 16.6868 6.60278 16.4105 6.32641C16.1341 6.05004 15.7593 5.89478 15.3684 5.89478H12.5263C12.8573 6.29478 13.056 6.80846 13.056 7.36846V8.42109H13.0526V10.9474H16.2105C16.378 10.9474 16.5387 10.8809 16.6571 10.7624C16.7756 10.644 16.8421 10.4833 16.8421 10.3158V7.36846Z" fill="#48C9FF"/>
<path d="M3.78947 10.1053H3.79116V7.36846L3.79874 7.1832C3.83663 6.69478 4.02611 6.25014 4.32084 5.89478H1.47368L1.35242 5.89983C0.983831 5.93026 0.640159 6.09817 0.389625 6.37024C0.139091 6.6423 1.38144e-05 6.99862 0 7.36846V10.3158C0 10.6645 0.282947 10.9474 0.631579 10.9474H3.78947V10.1053Z" fill="#48C9FF"/>
<path d="M8.42103 0C9.09105 0 9.73363 0.266165 10.2074 0.739941C10.6812 1.21372 10.9473 1.8563 10.9473 2.52632C10.9473 3.19634 10.6812 3.83891 10.2074 4.31269C9.73363 4.78647 9.09105 5.05263 8.42103 5.05263C7.75101 5.05263 7.10843 4.78647 6.63465 4.31269C6.16088 3.83891 5.89471 3.19634 5.89471 2.52632C5.89471 1.8563 6.16088 1.21372 6.63465 0.739941C7.10843 0.266165 7.75101 0 8.42103 0Z" fill="#48C9FF"/>
<path d="M13.8948 0.842041C14.4531 0.842041 14.9886 1.06384 15.3834 1.45866C15.7782 1.85347 16 2.38895 16 2.9473C16 3.50565 15.7782 4.04114 15.3834 4.43595C14.9886 4.83076 14.4531 5.05257 13.8948 5.05257C13.3364 5.05257 12.8009 4.83076 12.4061 4.43595C12.0113 4.04114 11.7895 3.50565 11.7895 2.9473C11.7895 2.38895 12.0113 1.85347 12.4061 1.45866C12.8009 1.06384 13.3364 0.842041 13.8948 0.842041Z" fill="#48C9FF"/>
<path d="M2.94737 0.842041C3.50572 0.842041 4.0412 1.06384 4.43601 1.45866C4.83082 1.85347 5.05263 2.38895 5.05263 2.9473C5.05263 3.50565 4.83082 4.04114 4.43601 4.43595C4.0412 4.83076 3.50572 5.05257 2.94737 5.05257C2.38901 5.05257 1.85353 4.83076 1.45872 4.43595C1.06391 4.04114 0.842102 3.50565 0.842102 2.9473C0.842102 2.38895 1.06391 1.85347 1.45872 1.45866C1.85353 1.06384 2.38901 0.842041 2.94737 0.842041Z" fill="#48C9FF"/>
<path d="M0 12.4211C0 12.2536 0.0665411 12.093 0.184985 11.9745C0.303429 11.8561 0.464074 11.7896 0.631579 11.7896H16.2105C16.378 11.7896 16.5387 11.8561 16.6571 11.9745C16.7756 12.093 16.8421 12.2536 16.8421 12.4211V12.8422C16.8421 13.6797 16.5094 14.4829 15.9172 15.0752C15.325 15.6674 14.5217 16.0001 13.6842 16.0001H3.15789C2.32037 16.0001 1.51715 15.6674 0.924926 15.0752C0.332706 14.4829 0 13.6797 0 12.8422V12.4211Z" fill="#48C9FF"/>
</svg>
