<svg width="26" height="16" viewBox="0 0 26 16" fill="none" xmlns="http://www.w3.org/2000/svg">
<path d="M16.8966 7.99832C16.8966 10.1199 15.1489 11.8397 12.9929 11.8397C10.837 11.8397 9.0893 10.1199 9.0893 7.99832C9.0893 5.87676 10.837 4.15694 12.9929 4.15694C15.1489 4.15692 16.8966 5.87679 16.8966 7.99832ZM13 0C10.7678 0.0101703 8.45403 0.568333 6.26375 1.63697C4.63749 2.46309 3.05262 3.62865 1.67687 5.06728C1.00117 5.80165 0.139338 6.86502 0 7.99957C0.0164667 8.98234 1.04282 10.1954 1.67687 10.9319C2.96697 12.314 4.51057 13.447 6.26375 14.363C8.30628 15.3812 10.5671 15.9674 13 16C15.2343 15.9897 17.5476 15.4251 19.7354 14.363C21.3617 13.5369 22.9474 12.3705 24.3231 10.9319C24.9988 10.1975 25.8606 9.13412 26 7.99957C25.9835 7.01679 24.9572 5.8037 24.3231 5.06724C23.033 3.68511 21.4886 2.55296 19.7354 1.63692C17.694 0.61954 15.4276 0.0373651 13 0ZM12.9984 1.98616C16.3809 1.98616 19.123 4.67881 19.123 8.00043C19.123 11.322 16.3809 14.0147 12.9984 14.0147C9.61578 14.0147 6.87373 11.322 6.87373 8.00043C6.87373 4.67881 9.61578 1.98616 12.9984 1.98616Z" fill="white"/>
</svg>
